<svg width="57" height="32" viewBox="0 0 57 32" fill="none" xmlns="http://www.w3.org/2000/svg">
<rect x="0.5" width="56" height="32" rx="16" fill="#848484" fill-opacity="0.1"/>
<path d="M31.975 14.3833H25.025C24.0417 14.3833 23.7 13.725 24.275 12.925L27.75 8.05833C28.1584 7.475 28.8417 7.475 29.25 8.05833L32.725 12.925C33.3 13.725 32.9584 14.3833 31.975 14.3833Z" fill="#292D32"/>
<path d="M33.1583 21H23.8416C22.525 21 22.075 20.125 22.85 19.0583L26.175 14.3833H30.825L34.15 19.0583C34.925 20.125 34.475 21 33.1583 21Z" fill="#292D32"/>
<path d="M29.125 21V24.3333C29.125 24.675 28.8417 24.9583 28.5 24.9583C28.1583 24.9583 27.875 24.675 27.875 24.3333V21H29.125Z" fill="#292D32"/>
</svg>
