<svg width="57" height="32" viewBox="0 0 57 32" fill="none" xmlns="http://www.w3.org/2000/svg">
<rect x="0.5" width="56" height="32" rx="16" fill="#848484" fill-opacity="0.1"/>
<path d="M29.4917 11H24.1584C23.9417 11 23.7334 11.0083 23.5334 11.0333C21.2917 11.225 20.1667 12.55 20.1667 14.9917V18.325C20.1667 21.6583 21.5001 22.3167 24.1584 22.3167H24.4917C24.6751 22.3167 24.9167 22.4417 25.0251 22.5833L26.0251 23.9167C26.4667 24.5083 27.1834 24.5083 27.6251 23.9167L28.6251 22.5833C28.7501 22.4167 28.9501 22.3167 29.1584 22.3167H29.4917C31.9334 22.3167 33.2584 21.2 33.4501 18.95C33.4751 18.75 33.4834 18.5417 33.4834 18.325V14.9917C33.4834 12.3333 32.1501 11 29.4917 11ZM23.9167 17.6667C23.4501 17.6667 23.0834 17.2917 23.0834 16.8333C23.0834 16.375 23.4584 16 23.9167 16C24.3751 16 24.7501 16.375 24.7501 16.8333C24.7501 17.2917 24.3751 17.6667 23.9167 17.6667ZM26.8251 17.6667C26.3584 17.6667 25.9917 17.2917 25.9917 16.8333C25.9917 16.375 26.3667 16 26.8251 16C27.2834 16 27.6584 16.375 27.6584 16.8333C27.6584 17.2917 27.2917 17.6667 26.8251 17.6667ZM29.7417 17.6667C29.2751 17.6667 28.9084 17.2917 28.9084 16.8333C28.9084 16.375 29.2834 16 29.7417 16C30.2001 16 30.5751 16.375 30.5751 16.8333C30.5751 17.2917 30.2001 17.6667 29.7417 17.6667Z" fill="#292D32"/>
<path d="M36.8167 11.6584V14.9917C36.8167 16.6584 36.3 17.7917 35.2667 18.4167C35.0167 18.5667 34.725 18.3667 34.725 18.0751L34.7334 14.9917C34.7334 11.6584 32.825 9.75008 29.4917 9.75008L24.4167 9.75841C24.125 9.75841 23.925 9.46675 24.075 9.21675C24.7 8.18341 25.8334 7.66675 27.4917 7.66675H32.825C35.4834 7.66675 36.8167 9.00008 36.8167 11.6584Z" fill="#292D32"/>
</svg>
