<svg width="76" height="76" viewBox="0 0 76 76" fill="none" xmlns="http://www.w3.org/2000/svg">
<rect width="76" height="76" rx="38" fill="#0E0E0E"/>
<path d="M28.2889 54.3342C29.8361 55.2561 31.5254 55.9643 33.3161 56.4183L33.1169 57.4253L34.0979 57.6193C35.3607 57.8692 36.6656 58 38 58C39.3344 58 40.6393 57.8692 41.9021 57.6193L42.8831 57.4253L42.6839 56.4183C44.4746 55.9643 46.1639 55.2561 47.7111 54.3342L48.282 55.187L49.113 54.6307C51.2936 53.1708 53.1708 51.2936 54.6307 49.113L55.187 48.2821L54.3342 47.7111C55.2561 46.1639 55.9643 44.4746 56.4183 42.6839L57.4253 42.8831L57.6193 41.9021C57.8692 40.6393 58 39.3344 58 38C58 36.6656 57.8692 35.3607 57.6193 34.0979L57.4253 33.1169L56.4183 33.3161C55.9643 31.5254 55.2561 29.8361 54.3342 28.2889L55.187 27.718L54.6307 26.887C53.1708 24.7064 51.2936 22.8292 49.113 21.3693L48.2821 20.813L47.7111 21.6658C46.1639 20.7439 44.4746 20.0357 42.6839 19.5817L42.8831 18.5747L41.9021 18.3807C40.6393 18.1308 39.3344 18 38 18C36.6656 18 35.3607 18.1308 34.0979 18.3807L33.1169 18.5747L33.3161 19.5817C31.5254 20.0357 29.8361 20.7439 28.2889 21.6658L27.718 20.813L26.887 21.3693C24.7064 22.8292 22.8292 24.7064 21.3693 26.887L20.813 27.7179L21.6658 28.2889C20.7439 29.8361 20.0357 31.5254 19.5817 33.3161L18.5747 33.1169L18.3807 34.0979C18.1308 35.3607 18 36.6656 18 38C18 39.3344 18.1308 40.6393 18.3807 41.9021L18.5747 42.8831L19.5817 42.6839C20.0357 44.4746 20.7439 46.1639 21.6658 47.7111L20.813 48.282L21.3693 49.113C22.8292 51.2936 24.7064 53.1708 26.887 54.6307L27.7179 55.187L28.2889 54.3342Z" stroke="white" stroke-width="2" stroke-linecap="square" stroke-dasharray="9 9"/>
<path d="M38 53C46.2843 53 53 46.2843 53 38C53 29.7157 46.2843 23 38 23C29.7157 23 23 29.7157 23 38C23 46.2843 29.7157 53 38 53Z" fill="white"/>
<path d="M37.9986 34C38.6603 34 39.1973 34.5459 39.1973 35.2155V36.7838H40.8014C41.4616 36.7838 42 37.3297 42 37.9993C42 38.6689 41.4616 39.2148 40.8014 39.2148H39.1973V40.7845C39.1973 41.4541 38.6603 42 37.9986 42C37.3384 42 36.8 41.4541 36.8 40.7845V39.2148H35.1986C34.537 39.2148 34 38.6689 34 37.9993C34 37.3297 34.537 36.7838 35.1986 36.7838H36.8V35.2155C36.8 34.5459 37.3384 34 37.9986 34Z" fill="#0E0E0E"/>
</svg>
