<svg width="56" height="32" viewBox="0 0 56 32" fill="none" xmlns="http://www.w3.org/2000/svg">
<rect width="56" height="32" rx="16" fill="#848484" fill-opacity="0.1"/>
<path d="M35.3583 12.675L29.9 8.30831C28.8333 7.45831 27.1667 7.44997 26.1083 8.29997L20.65 12.675C19.8667 13.3 19.3917 14.55 19.5583 15.5333L20.6083 21.8166C20.85 23.225 22.1583 24.3333 23.5833 24.3333H32.4167C33.825 24.3333 35.1583 23.2 35.4 21.8083L36.45 15.525C36.6 14.55 36.125 13.3 35.3583 12.675ZM28.625 21C28.625 21.3416 28.3417 21.625 28 21.625C27.6583 21.625 27.375 21.3416 27.375 21V18.5C27.375 18.1583 27.6583 17.875 28 17.875C28.3417 17.875 28.625 18.1583 28.625 18.5V21Z" fill="#292D32"/>
</svg>
