<svg width="56" height="32" viewBox="0 0 56 32" fill="none" xmlns="http://www.w3.org/2000/svg">
<rect width="56" height="32" rx="16" fill="#848484" fill-opacity="0.1"/>
<path d="M25.2917 8.91669V7.66669C25.2917 7.32502 25.0084 7.04169 24.6667 7.04169C24.3251 7.04169 24.0417 7.32502 24.0417 7.66669V8.96669C24.2501 8.94169 24.4417 8.91669 24.6667 8.91669H25.2917Z" fill="#292D32"/>
<path d="M31.9583 8.96669V7.66669C31.9583 7.32502 31.6749 7.04169 31.3333 7.04169C30.9916 7.04169 30.7083 7.32502 30.7083 7.66669V8.91669H31.3333C31.5583 8.91669 31.7499 8.94169 31.9583 8.96669Z" fill="#292D32"/>
<path d="M31.9583 8.96669V10.1667C31.9583 10.5084 31.675 10.7917 31.3333 10.7917C30.9917 10.7917 30.7083 10.5084 30.7083 10.1667V8.91669H25.2917V10.1667C25.2917 10.5084 25.0083 10.7917 24.6667 10.7917C24.325 10.7917 24.0417 10.5084 24.0417 10.1667V8.96669C21.5833 9.19169 20.5 10.775 20.5 13.0834V20.1667C20.5 22.6667 21.75 24.3334 24.6667 24.3334H31.3333C34.25 24.3334 35.5 22.6667 35.5 20.1667V13.0834C35.5 10.775 34.4167 9.19169 31.9583 8.96669ZM28 19.9584H24.6667C24.325 19.9584 24.0417 19.675 24.0417 19.3334C24.0417 18.9917 24.325 18.7084 24.6667 18.7084H28C28.3417 18.7084 28.625 18.9917 28.625 19.3334C28.625 19.675 28.3417 19.9584 28 19.9584ZM31.3333 15.7917H24.6667C24.325 15.7917 24.0417 15.5084 24.0417 15.1667C24.0417 14.825 24.325 14.5417 24.6667 14.5417H31.3333C31.675 14.5417 31.9583 14.825 31.9583 15.1667C31.9583 15.5084 31.675 15.7917 31.3333 15.7917Z" fill="#292D32"/>
</svg>
