<svg width="56" height="32" viewBox="0 0 56 32" fill="none" xmlns="http://www.w3.org/2000/svg">
<rect width="56" height="32" rx="16" fill="#848484" fill-opacity="0.1"/>
<path d="M31.4917 7.66675H24.5084C21.4751 7.66675 19.6667 9.47508 19.6667 12.5084V19.4917C19.6667 21.8334 20.7417 23.4417 22.6334 24.0501C23.1834 24.2417 23.8167 24.3334 24.5084 24.3334H31.4917C32.1834 24.3334 32.8167 24.2417 33.3667 24.0501C35.2584 23.4417 36.3334 21.8334 36.3334 19.4917V12.5084C36.3334 9.47508 34.5251 7.66675 31.4917 7.66675ZM35.0834 19.4917C35.0834 21.2751 34.3834 22.4001 32.9751 22.8667C32.1667 21.2751 30.2501 20.1417 28.0001 20.1417C25.7501 20.1417 23.8417 21.2667 23.0251 22.8667H23.0167C21.6251 22.4167 20.9167 21.2834 20.9167 19.5001V12.5084C20.9167 10.1584 22.1584 8.91675 24.5084 8.91675H31.4917C33.8417 8.91675 35.0834 10.1584 35.0834 12.5084V19.4917Z" fill="#292D32"/>
<path d="M28.0002 12.6667C26.3502 12.6667 25.0168 14.0001 25.0168 15.6501C25.0168 17.3001 26.3502 18.6417 28.0002 18.6417C29.6502 18.6417 30.9835 17.3001 30.9835 15.6501C30.9835 14.0001 29.6502 12.6667 28.0002 12.6667Z" fill="#292D32"/>
</svg>
