<svg fill="none" height="41" viewBox="0 0 40 41" width="40" xmlns="http://www.w3.org/2000/svg">
    <circle cx="20" cy="20.4868" fill="#7A1CAC" r="20" />
    <path
        d="M15 18.82V17.1533C15 14.395 15.8333 12.1533 20 12.1533C24.1667 12.1533 25 14.395 25 17.1533V18.82"
        stroke="white" stroke-linecap="round" stroke-linejoin="round" stroke-width="1.5" />
    <path
        d="M24.1667 28.8203H15.8333C12.5 28.8203 11.6667 27.987 11.6667 24.6536V22.987C11.6667 19.6536 12.5 18.8203 15.8333 18.8203H24.1667C27.5 18.8203 28.3333 19.6536 28.3333 22.987V24.6536C28.3333 27.987 27.5 28.8203 24.1667 28.8203Z"
        stroke="white" stroke-linecap="round" stroke-linejoin="round" stroke-width="1.5" />
    <path d="M23.3304 23.82H23.3379" stroke="white" stroke-linecap="round" stroke-linejoin="round"
        stroke-width="2" />
    <path d="M19.9962 23.82H20.0037" stroke="white" stroke-linecap="round" stroke-linejoin="round"
        stroke-width="2" />
    <path d="M16.6621 23.82H16.6696" stroke="white" stroke-linecap="round" stroke-linejoin="round"
        stroke-width="2" />
</svg>
