<svg width="20" height="21" viewBox="0 0 20 21" fill="none" xmlns="http://www.w3.org/2000/svg">
<path fill-rule="evenodd" clip-rule="evenodd" d="M7.49996 1.33325H12.5C13.4204 1.33325 14.1666 2.07944 14.1666 2.99992V3.83325H16.6666C17.5871 3.83325 18.3333 4.57944 18.3333 5.49992V7.16658C18.3333 8.08706 17.5871 8.83325 16.6666 8.83325H16.5998L15.8333 17.9999C15.8333 18.9204 15.0871 19.6666 14.1666 19.6666H5.83329C4.91282 19.6666 4.16663 18.9204 4.1695 18.0691L3.39985 8.83325H3.33329C2.41282 8.83325 1.66663 8.08706 1.66663 7.16658V5.49992C1.66663 4.57944 2.41282 3.83325 3.33329 3.83325H5.83329V2.99992C5.83329 2.07944 6.57948 1.33325 7.49996 1.33325ZM3.33329 5.49992H5.83329H14.1666H16.6666V7.16658H3.33329V5.49992ZM5.07203 8.83325H14.9276L14.1695 17.9307L14.1666 17.9999H5.83329L5.07203 8.83325ZM12.5 2.99992V3.83325H7.49996V2.99992H12.5Z" fill="#FF3D3D"/>
</svg>
