<svg width="14" height="19" viewBox="0 0 14 19" fill="none" xmlns="http://www.w3.org/2000/svg">
<path d="M7 18.5018C5.73694 17.4244 4.56619 16.2433 3.5 14.9708C1.9 13.0598 8.78894e-07 10.2138 8.78894e-07 7.5018C-0.00069302 6.11676 0.409509 4.76265 1.17869 3.61083C1.94788 2.45901 3.04147 1.56126 4.32107 1.0312C5.60067 0.501138 7.00875 0.362591 8.36712 0.633093C9.72548 0.903594 10.9731 1.57098 11.952 2.5508C12.6038 3.19966 13.1203 3.97134 13.4719 4.82117C13.8234 5.67101 14.0029 6.58213 14 7.5018C14 10.2138 12.1 13.0598 10.5 14.9708C9.4338 16.2433 8.26306 17.4244 7 18.5018ZM7 4.5018C6.20435 4.5018 5.44129 4.81787 4.87868 5.38048C4.31607 5.94309 4 6.70615 4 7.5018C4 8.29745 4.31607 9.06051 4.87868 9.62312C5.44129 10.1857 6.20435 10.5018 7 10.5018C7.79565 10.5018 8.55871 10.1857 9.12132 9.62312C9.68393 9.06051 10 8.29745 10 7.5018C10 6.70615 9.68393 5.94309 9.12132 5.38048C8.55871 4.81787 7.79565 4.5018 7 4.5018Z" fill="#FC5776"/>
</svg>
