<svg width="24" height="24" viewBox="0 0 24 24" fill="none" xmlns="http://www.w3.org/2000/svg">
<path fill-rule="evenodd" clip-rule="evenodd" d="M12.0007 0C18.6281 0 24.0007 5.37258 24.0007 12C24.0007 18.6274 18.6281 24 12.0007 24C5.37332 24 0.000732422 18.6274 0.000732422 12C0.000732422 5.37258 5.37332 0 12.0007 0ZM16.7125 15.72C15.5187 17.249 13.9766 17.9946 12.0007 17.9946C10.0248 17.9946 8.48276 17.249 7.28894 15.72C6.94905 15.2847 6.32063 15.2073 5.88532 15.5472C5.45001 15.8871 5.37264 16.5155 5.71253 16.9508C7.287 18.9674 9.4116 19.9946 12.0007 19.9946C14.5899 19.9946 16.7145 18.9674 18.2889 16.9508C18.6288 16.5155 18.5515 15.8871 18.1161 15.5472C17.6808 15.2073 17.0524 15.2847 16.7125 15.72ZM8.00073 8C7.17231 8 6.50073 8.89543 6.50073 10C6.50073 11.1046 7.17231 12 8.00073 12C8.82916 12 9.50073 11.1046 9.50073 10C9.50073 8.89543 8.82916 8 8.00073 8ZM16.0007 8C15.1723 8 14.5007 8.89543 14.5007 10C14.5007 11.1046 15.1723 12 16.0007 12C16.8292 12 17.5007 11.1046 17.5007 10C17.5007 8.89543 16.8292 8 16.0007 8Z" fill="#0E0E0E"/>
</svg>
