<svg fill="none" height="37" viewBox="0 0 37 37" width="37" xmlns="http://www.w3.org/2000/svg">
    <circle cx="18.1882" cy="18.1106" fill="#7A1CAC" r="17.9548" />
    <path
        d="M24.9382 25.6104H11.4382C11.1307 25.6104 10.8757 25.3554 10.8757 25.0479C10.8757 24.7404 11.1307 24.4854 11.4382 24.4854H24.9382C25.2457 24.4854 25.5007 24.7404 25.5007 25.0479C25.5007 25.3554 25.2457 25.6104 24.9382 25.6104Z"
        fill="white" />
    <path
        d="M23.4532 11.7206C21.9982 10.2656 20.5732 10.2281 19.0807 11.7206L18.1732 12.6281C18.0982 12.7031 18.0682 12.8231 18.0982 12.9281C18.6682 14.9156 20.2582 16.5056 22.2457 17.0756C22.2757 17.0831 22.3057 17.0906 22.3357 17.0906C22.4182 17.0906 22.4932 17.0606 22.5532 17.0006L23.4532 16.0931C24.1957 15.3581 24.5557 14.6456 24.5557 13.9256C24.5632 13.1831 24.2032 12.4631 23.4532 11.7206Z"
        fill="white" />
    <path
        d="M20.8957 17.7579C20.6782 17.6529 20.4682 17.5479 20.2657 17.4279C20.1007 17.3304 19.9432 17.2254 19.7857 17.1129C19.6582 17.0304 19.5082 16.9104 19.3657 16.7904C19.3507 16.7829 19.2982 16.7379 19.2382 16.6779C18.9907 16.4679 18.7132 16.1979 18.4657 15.8979C18.4432 15.8829 18.4057 15.8304 18.3532 15.7629C18.2782 15.6729 18.1507 15.5229 18.0382 15.3504C17.9482 15.2379 17.8432 15.0729 17.7457 14.9079C17.6257 14.7054 17.5207 14.5029 17.4157 14.2929C17.278 13.9979 16.8908 13.9103 16.6606 14.1405L12.4432 18.3579C12.3457 18.4554 12.2557 18.6429 12.2332 18.7704L11.8282 21.6429C11.7532 22.1529 11.8957 22.6329 12.2107 22.9554C12.4807 23.2179 12.8557 23.3604 13.2607 23.3604C13.3507 23.3604 13.4407 23.3529 13.5307 23.3379L16.4107 22.933C16.5457 22.9104 16.7332 22.8204 16.8232 22.7229L21.0476 18.4985C21.2732 18.273 21.1884 17.8848 20.8957 17.7579Z"
        fill="white" />
</svg>
