<svg fill="none" height="41" viewBox="0 0 40 41" width="40" xmlns="http://www.w3.org/2000/svg">
    <circle cx="20" cy="20.4868" fill="#7A1CAC" r="20" />
    <path
        d="M20.16 19.3568C20.06 19.3468 19.94 19.3468 19.83 19.3568C17.45 19.2768 15.56 17.3268 15.56 14.9268C15.56 12.4768 17.54 10.4868 20 10.4868C22.45 10.4868 24.44 12.4768 24.44 14.9268C24.43 17.3268 22.54 19.2768 20.16 19.3568Z"
        stroke="white" stroke-linecap="round" stroke-linejoin="round" stroke-width="1.5" />
    <path
        d="M15.16 23.0468C12.74 24.6668 12.74 27.3068 15.16 28.9168C17.91 30.7568 22.42 30.7568 25.17 28.9168C27.59 27.2968 27.59 24.6568 25.17 23.0468C22.43 21.2168 17.92 21.2168 15.16 23.0468Z"
        stroke="white" stroke-linecap="round" stroke-linejoin="round" stroke-width="1.5" />
</svg>
