<svg width="20" height="21" viewBox="0 0 20 21" fill="none" xmlns="http://www.w3.org/2000/svg">
<path fill-rule="evenodd" clip-rule="evenodd" d="M13.6978 2.16675C14.2434 2.16675 14.7664 2.3846 15.1484 2.7696L17.7325 5.35368C18.1172 5.73841 18.3333 6.26022 18.3333 6.80431C18.3333 7.34841 18.1172 7.87021 17.7325 8.25495L8.29788 17.6865C7.71581 18.358 6.89071 18.7705 5.94546 18.8354H1.66663V18.002L1.66933 14.4895C1.74032 13.6108 2.14885 12.7937 2.77204 12.2446L12.2461 2.7706C12.6303 2.38411 13.1528 2.16675 13.6978 2.16675ZM5.88661 17.1708C6.3318 17.1393 6.7462 16.9321 7.07895 16.5514L13.3805 10.2498L10.2519 7.12108L3.91338 13.4581C3.57575 13.7567 3.36688 14.1744 3.33329 14.5566V17.1692L5.88661 17.1708ZM11.4305 5.94271L14.5591 9.07133L16.554 7.07643C16.6261 7.00426 16.6667 6.90638 16.6667 6.80431C16.6667 6.70225 16.6261 6.60437 16.554 6.5322L13.9676 3.9458C13.8962 3.87387 13.7991 3.83341 13.6978 3.83341C13.5964 3.83341 13.4993 3.87387 13.4279 3.9458L11.4305 5.94271Z" fill="#2360FF"/>
</svg>
