<svg width="4" height="13" viewBox="0 0 4 13" fill="none" xmlns="http://www.w3.org/2000/svg">
<path d="M3.99998 2.33729C3.99998 1.39042 3.23238 0.622825 2.28551 0.622825C1.33864 0.622825 0.571045 1.39042 0.571045 2.33729C0.571045 3.28417 1.33864 4.05176 2.28551 4.05176C3.23238 4.05176 3.99998 3.28417 3.99998 2.33729Z" fill="#939393"/>
<path d="M3.99998 6.62294C3.99998 5.67606 3.23238 4.90847 2.28551 4.90847C1.33864 4.90847 0.571045 5.67606 0.571045 6.62294C0.571045 7.56981 1.33864 8.3374 2.28551 8.3374C3.23238 8.3374 3.99998 7.56981 3.99998 6.62294Z" fill="#939393"/>
<path d="M3.99998 10.9086C3.99998 9.96171 3.23238 9.19411 2.28551 9.19411C1.33864 9.19411 0.571045 9.96171 0.571045 10.9086C0.571045 11.8555 1.33864 12.623 2.28551 12.623C3.23238 12.623 3.99998 11.8555 3.99998 10.9086Z" fill="#939393"/>
</svg>
