<svg width="48" height="48" viewBox="0 0 48 48" fill="none" xmlns="http://www.w3.org/2000/svg">
<rect width="48" height="48" rx="24" fill="#0E0E0E"/>
<path d="M20.9999 30.0004C20.4999 30.0004 20.0749 29.8254 19.7249 29.4754C19.3749 29.1254 19.1999 28.7004 19.1999 28.2004V27.0004H30.5999V19.2004H31.7999C32.2999 19.2004 32.7249 19.3754 33.0749 19.7254C33.4249 20.0754 33.5999 20.5004 33.5999 21.0004V33.6004L29.9999 30.0004H20.9999ZM14.3999 28.8004V16.2004C14.3999 15.7004 14.5749 15.2754 14.9249 14.9254C15.2749 14.5754 15.6999 14.4004 16.1999 14.4004H26.9999C27.4999 14.4004 27.9249 14.5754 28.2749 14.9254C28.6249 15.2754 28.7999 15.7004 28.7999 16.2004V23.4004C28.7999 23.9004 28.6249 24.3254 28.2749 24.6754C27.9249 25.0254 27.4999 25.2004 26.9999 25.2004H17.9999L14.3999 28.8004ZM26.9999 23.4004V16.2004H16.1999V23.4004H26.9999Z" fill="white"/>
</svg>
