<svg width="57" height="32" viewBox="0 0 57 32" fill="none" xmlns="http://www.w3.org/2000/svg">
<path d="M33.4834 14.9917V18.325C33.4834 18.5417 33.475 18.75 33.45 18.95C33.2584 21.2 31.9334 22.3167 29.4917 22.3167H29.1584C28.95 22.3167 28.75 22.4167 28.625 22.5833L27.625 23.9167C27.1834 24.5083 26.4667 24.5083 26.025 23.9167L25.025 22.5833C24.9167 22.4417 24.675 22.3167 24.4917 22.3167H24.1584C21.5 22.3167 20.1667 21.6583 20.1667 18.325V14.9917C20.1667 12.55 21.2917 11.225 23.5334 11.0333C23.7334 11.0083 23.9417 11 24.1584 11H29.4917C32.15 11 33.4834 12.3333 33.4834 14.9917Z" stroke="#939393" stroke-width="1.5" stroke-miterlimit="10" stroke-linecap="round" stroke-linejoin="round"/>
<path d="M36.8167 11.6583V14.9916C36.8167 17.4416 35.6917 18.7583 33.45 18.95C33.475 18.75 33.4833 18.5416 33.4833 18.325V14.9916C33.4833 12.3333 32.15 11 29.4917 11H24.1583C23.9417 11 23.7333 11.0083 23.5333 11.0333C23.725 8.79163 25.05 7.66663 27.4917 7.66663H32.825C35.4833 7.66663 36.8167 8.99997 36.8167 11.6583Z" stroke="#939393" stroke-width="1.5" stroke-miterlimit="10" stroke-linecap="round" stroke-linejoin="round"/>
<path d="M29.7462 17.0417H29.7537" stroke="#939393" stroke-width="1.5" stroke-linecap="round" stroke-linejoin="round"/>
<path d="M26.8296 17.0417H26.8371" stroke="#939393" stroke-width="1.5" stroke-linecap="round" stroke-linejoin="round"/>
<path d="M23.9129 17.0417H23.9204" stroke="#939393" stroke-width="1.5" stroke-linecap="round" stroke-linejoin="round"/>
</svg>
