<svg width="56" height="32" viewBox="0 0 56 32" fill="none" xmlns="http://www.w3.org/2000/svg">
<path d="M33.1167 24.0166C32.3834 24.2333 31.5167 24.3333 30.5 24.3333H25.5C24.4834 24.3333 23.6167 24.2333 22.8834 24.0166C23.0667 21.85 25.2917 20.1416 28 20.1416C30.7084 20.1416 32.9334 21.85 33.1167 24.0166Z" stroke="#939393" stroke-width="1.5" stroke-linecap="round" stroke-linejoin="round"/>
<path d="M30.5 7.66663H25.5C21.3334 7.66663 19.6667 9.33329 19.6667 13.5V18.5C19.6667 21.65 20.6167 23.375 22.8834 24.0166C23.0667 21.85 25.2917 20.1416 28 20.1416C30.7084 20.1416 32.9334 21.85 33.1167 24.0166C35.3834 23.375 36.3334 21.65 36.3334 18.5V13.5C36.3334 9.33329 34.6667 7.66663 30.5 7.66663ZM28 17.8083C26.35 17.8083 25.0167 16.4666 25.0167 14.8166C25.0167 13.1666 26.35 11.8333 28 11.8333C29.65 11.8333 30.9834 13.1666 30.9834 14.8166C30.9834 16.4666 29.65 17.8083 28 17.8083Z" stroke="#939393" stroke-width="1.5" stroke-linecap="round" stroke-linejoin="round"/>
<path d="M30.9833 14.8167C30.9833 16.4667 29.65 17.8084 28 17.8084C26.35 17.8084 25.0167 16.4667 25.0167 14.8167C25.0167 13.1667 26.35 11.8334 28 11.8334C29.65 11.8334 30.9833 13.1667 30.9833 14.8167Z" stroke="#939393" stroke-width="1.5" stroke-linecap="round" stroke-linejoin="round"/>
</svg>
