<svg fill="none" height="166" viewBox="0 0 279 166" width="279" xmlns="http://www.w3.org/2000/svg">
    <path
        d="M141.873 0C142.452 0.261855 142.759 0.316595 143.407 0.383334C142.828 0.121517 142.521 0.0667384 141.873 0Z"
        fill="#090909" />
    <path
        d="M141.114 0.6679C136.301 2.56306 139.733 9.72083 144.542 7.76548C149.171 5.883 145.842 -1.1951 141.114 0.6679Z"
        fill="#090909" />
    <path
        d="M148.009 4.98324L151.844 19.1666C156.653 18.4595 161.213 16.3654 166.033 15.7166C165.811 10.8307 163.571 5.93675 162.582 1.1499C157.838 1.84749 152.496 3.2917 148.009 4.98324Z"
        fill="#090909" />
    <path
        d="M128.068 2.50277C118.768 4.63296 118.193 18.9137 128.068 20.5749C129.41 20.8007 130.959 20.803 132.286 20.4971C143.657 17.8743 139.327 -0.0766449 128.068 2.50277Z"
        fill="#090909" />
    <path
        d="M108.509 9.96655C106.511 13.2286 104.54 16.5494 102.757 19.9332C105.898 22.0044 109.518 24.5463 113.111 25.6832C115.213 22.5012 117.56 18.9182 118.863 15.3332C115.316 13.8057 112.225 11.0589 108.509 9.96655Z"
        fill="#090909" />
    <path
        d="M120.524 12.5222C120.505 12.5437 120.482 12.948 120.655 12.7778C120.674 12.7566 120.697 12.3518 120.524 12.5222Z"
        fill="#090909" />
    <path
        d="M169.883 12.906C165.983 14.0739 167.797 20.1632 171.77 18.9146C175.639 17.6971 173.699 11.7646 169.883 12.906Z"
        fill="#090909" />
    <path
        d="M145.325 14.5664C143.365 16.0765 141.352 17.5781 139.189 18.7831C140.017 20.5311 141.643 24.067 143.522 24.8505C144.999 25.4657 149.673 22.2829 149.608 20.6641C149.528 18.6152 146.813 15.7774 145.325 14.5664Z"
        fill="#090909" />
    <path
        d="M166.16 15.2054C166.14 15.2268 166.117 15.6311 166.29 15.4609C166.309 15.4397 166.332 15.0349 166.16 15.2054Z"
        fill="#090909" />
    <path d="M167.184 15.3335V16.4835C167.452 15.888 167.452 15.929 167.184 15.3335Z"
        fill="#090909" />
    <path
        d="M170.251 19.1665C170.731 19.4291 170.846 19.4535 171.402 19.5498C170.923 19.2873 170.808 19.2628 170.251 19.1665Z"
        fill="#090909" />
    <path
        d="M171.659 20.4443C171.486 20.6148 171.893 20.5934 171.912 20.5723C172.085 20.4017 171.678 20.4232 171.659 20.4443Z"
        fill="#090909" />
    <path
        d="M131.009 20.8276C130.836 20.9978 131.243 20.9771 131.262 20.9556C131.435 20.785 131.028 20.8065 131.009 20.8276Z"
        fill="#090909" />
    <path
        d="M171.402 20.7C170.846 23.0498 169.849 25.3015 169.101 27.6C171.402 28.3478 173.653 29.343 176.004 29.9C177.051 27.6624 177.799 25.3026 178.688 23C176.288 22.2187 173.902 21.0745 171.402 20.7Z"
        fill="#090909" />
    <path
        d="M155.552 21.9775C155.379 22.148 155.786 22.1266 155.805 22.1055C155.978 21.9349 155.571 21.9564 155.552 21.9775Z"
        fill="#090909" />
    <path
        d="M156.062 22.0528C146.766 22.8976 148.316 37.0871 157.596 35.962C166.42 34.8925 164.848 21.2543 156.062 22.0528Z"
        fill="#090909" />
    <path
        d="M157.47 21.9775C157.297 22.148 157.704 22.1266 157.723 22.1055C157.896 21.9349 157.489 21.9564 157.47 21.9775Z"
        fill="#090909" />
    <path
        d="M125.383 29.9C127.07 31.9903 129.513 34.0343 131.902 35.2667C133.406 33.0709 135.534 31.2578 136.504 28.75C135.062 27.6636 132.639 24.6821 130.767 24.6656C128.884 24.6487 126.591 28.6365 125.383 29.9Z"
        fill="#090909" />
    <path
        d="M187.125 28.3667C187.605 28.6293 187.72 28.6538 188.276 28.75C187.796 28.4874 187.681 28.4629 187.125 28.3667Z"
        fill="#090909" />
    <path
        d="M188.276 28.602C181.971 28.9194 182.351 38.5905 188.659 38.2777C194.791 37.9737 194.519 28.288 188.276 28.602Z"
        fill="#090909" />
    <path
        d="M119.631 29.8999C120.309 30.1985 120.796 30.2495 121.548 30.2832C120.869 29.9846 120.382 29.9336 119.631 29.8999Z"
        fill="#090909" />
    <path
        d="M175.877 30.0275C175.705 30.1977 176.111 30.177 176.131 30.1555C176.303 29.985 175.897 30.0064 175.877 30.0275Z"
        fill="#090909" />
    <path
        d="M118.871 30.5679C114.028 32.4754 117.218 40.3445 122.315 38.3745C127.557 36.3452 124.018 28.5409 118.871 30.5679Z"
        fill="#090909" />
    <path
        d="M113.878 41.7834L114.261 31.0501C111.807 31.0501 109.41 30.7269 106.975 30.6725C106.139 30.6537 104.893 30.4942 104.192 31.0608C103.124 31.9245 103.571 34.0711 103.49 35.2668C103.388 36.748 102.484 39.4344 103.534 40.7323C104.212 41.5695 105.644 41.3851 106.592 41.4012C109.031 41.443 111.427 41.7834 113.878 41.7834Z"
        fill="#090909" />
    <path
        d="M141.873 31.4333C142.452 31.6952 142.759 31.75 143.407 31.8167C142.828 31.5549 142.521 31.5 141.873 31.4333Z"
        fill="#090909" />
    <path
        d="M165.65 31.4333C164.445 35.1371 162.712 38.7631 161.815 42.55C164.353 43.5294 166.915 44.4698 169.485 45.3649C170.397 45.6826 171.789 46.4823 172.744 45.9494C173.68 45.4262 174.014 43.8633 174.34 42.9334C175.241 40.3654 176.173 37.8059 177.154 35.2667C173.281 34.2102 169.607 32.1142 165.65 31.4333Z"
        fill="#090909" />
    <path
        d="M141.106 32.0669C134.744 34.0606 138.157 43.8191 144.558 41.651C150.487 39.6423 147.261 30.138 141.106 32.0669Z"
        fill="#090909" />
    <path d="M183.29 32.5835V34.1168C183.563 33.4422 183.563 33.2582 183.29 32.5835Z"
        fill="#090909" />
    <path d="M193.261 32.5835V34.5002C193.58 33.722 193.58 33.3617 193.261 32.5835Z"
        fill="#090909" />
    <path
        d="M125.126 34.3724C125.107 34.3939 125.084 34.7979 125.257 34.6277C125.276 34.6066 125.299 34.2018 125.126 34.3724Z"
        fill="#090909" />
    <path d="M137.271 36.0332V37.9499C137.59 37.1717 137.59 36.8114 137.271 36.0332Z"
        fill="#090909" />
    <path d="M147.625 36.0332V37.9499C147.944 37.1717 147.944 36.8114 147.625 36.0332Z"
        fill="#090909" />
    <path
        d="M155.679 36.0332C156.258 36.295 156.565 36.3498 157.213 36.4165C156.634 36.1547 156.323 36.0999 155.679 36.0332Z"
        fill="#090909" />
    <path
        d="M187.892 38.3333C188.372 38.5958 188.487 38.6204 189.043 38.7166C188.563 38.454 188.448 38.4295 187.892 38.3333Z"
        fill="#090909" />
    <path
        d="M119.631 38.7168C120.309 39.0154 120.796 39.0664 121.548 39.1001C120.869 38.8015 120.382 38.7505 119.631 38.7168Z"
        fill="#090909" />
    <path
        d="M183.29 38.7168C181.58 41.0693 179.693 43.6434 178.688 46.3835C181.181 47.765 183.566 49.9443 186.358 50.6001C187.562 48.0594 189.384 45.8702 190.576 43.3168C188.206 41.7195 185.787 40.1068 183.29 38.7168Z"
        fill="#090909" />
    <path
        d="M130.752 39.4834C128.432 41.2713 126.027 43.0411 123.466 44.4667C123.976 46.6391 125.448 48.4369 126.756 50.2148C127.216 50.8397 127.73 51.7585 128.52 52.0065C129.199 52.2185 129.809 51.8321 130.368 51.5009C131.722 50.699 135.542 48.8563 135.695 47.1144C135.776 46.1641 134.947 45.2054 134.46 44.4667C133.325 42.7463 132.186 40.9669 130.752 39.4834Z"
        fill="#090909" />
    <path
        d="M93.9364 40.045C92.1332 40.367 90.3477 41.0137 88.9675 42.2488C82.1916 48.3124 87.4984 60.213 96.6209 58.792C98.1341 58.5562 99.5791 58.0832 100.838 57.1935C108.662 51.6643 103.635 38.3124 93.9364 40.045Z"
        fill="#090909" />
    <path
        d="M143.281 41.9108C143.108 42.081 143.515 42.0599 143.534 42.0389C143.707 41.8683 143.3 41.8897 143.281 41.9108Z"
        fill="#090909" />
    <path
        d="M148.902 43.5721C148.883 43.5932 148.86 43.998 149.033 43.8274C149.052 43.8063 149.075 43.4015 148.902 43.5721Z"
        fill="#090909" />
    <path
        d="M136.247 43.9557C136.228 43.9771 136.205 44.3812 136.378 44.211C136.397 44.1899 136.42 43.7851 136.247 43.9557Z"
        fill="#090909" />
    <path
        d="M148.392 44.0833C143.307 56.312 142.141 69.0456 146.931 81.65C148.174 84.9152 149.715 90.3248 152.994 92C150.502 81.2344 146.793 70.0948 154.053 60.1833C155.426 58.3069 156.967 56.6006 158.747 55.1056C160.775 53.4025 162.865 51.7357 165.266 50.5999C163.636 50.0215 161.469 50.9296 159.897 51.5445C157.332 52.5473 154.708 53.91 152.611 55.6986C150.835 57.2109 149.432 59.1115 147.625 60.5666C147.487 57.3727 146.935 54.1956 147.353 50.9833C147.625 48.8837 148.991 46.1057 148.392 44.0833Z"
        fill="#090909" />
    <path
        d="M136.504 44.4668C137.812 49.1232 137.647 53.5142 137.271 58.2668C130.959 54.1053 123.673 52.5168 116.179 52.5168C120.006 54.5995 124.083 55.6713 127.684 58.3266C129.318 59.5326 130.821 60.9045 132.106 62.4835C139.116 71.1012 135.664 81.2182 133.436 90.8502C135.005 90.3526 138.115 90.2852 139.246 89.0869C139.921 88.3723 140.059 87.1644 140.289 86.2502C140.865 83.964 141.336 81.6624 141.796 79.3502C143.476 70.8881 142.855 62.7702 140.773 54.4335C139.963 51.2039 138.867 46.9006 136.504 44.4668Z"
        fill="#090909" />
    <path
        d="M151.084 46.992C147.065 48.0516 148.757 54.7235 152.987 53.4148C157.006 52.1732 155.103 45.9317 151.084 46.992Z"
        fill="#090909" />
    <path
        d="M137.014 47.4056C136.995 47.4271 136.972 47.8311 137.145 47.6609C137.164 47.6398 137.187 47.235 137.014 47.4056Z"
        fill="#090909" />
    <path d="M104.674 47.9165V50.9832C105.12 49.9213 105.12 48.9783 104.674 47.9165Z"
        fill="#090909" />
    <path d="M85.4998 48.3V50.6001C85.8648 49.7241 85.8648 49.176 85.4998 48.3Z" fill="#090909" />
    <path
        d="M171.785 48.4794C163.77 49.9775 162.206 61.3372 169.868 64.6427C171.459 65.3296 173.546 65.3381 175.237 65.0406C185.706 63.2018 182.236 46.5256 171.785 48.4794Z"
        fill="#090909" />
    <path d="M137.271 49.0664V50.5997C137.543 49.9251 137.543 49.7411 137.271 49.0664Z"
        fill="#090909" />
    <path d="M148.393 49.8333V50.9833C148.661 50.3876 148.661 50.429 148.393 49.8333Z"
        fill="#090909" />
    <path
        d="M155.422 50.0892C155.403 50.1107 155.38 50.5147 155.552 50.3445C155.571 50.3234 155.594 49.9186 155.422 50.0892Z"
        fill="#090909" />
    <path
        d="M147.369 50.4723C147.349 50.4937 147.326 50.8978 147.499 50.7276C147.518 50.7065 147.541 50.3017 147.369 50.4723Z"
        fill="#090909" />
    <path d="M137.271 50.6001V55.5834C137.881 54.1302 137.881 52.0533 137.271 50.6001Z"
        fill="#090909" />
    <path
        d="M147.369 51.2391C147.349 51.2606 147.326 51.6646 147.499 51.4944C147.518 51.4733 147.541 51.0685 147.369 51.2391Z"
        fill="#090909" />
    <path
        d="M115.412 52.1333C115.891 52.3959 116.007 52.4204 116.563 52.5166C116.083 52.2541 115.968 52.2295 115.412 52.1333Z"
        fill="#090909" />
    <path
        d="M116.563 52.1333C117.142 52.3951 117.449 52.4499 118.097 52.5166C117.518 52.2548 117.207 52.2 116.563 52.1333Z"
        fill="#090909" />
    <path
        d="M118.097 52.1333C118.576 52.3959 118.691 52.4204 119.247 52.5166C118.768 52.2541 118.653 52.2295 118.097 52.1333Z"
        fill="#090909" />
    <path
        d="M107.742 55.9669C108.778 57.8233 110.005 59.5721 111.194 61.3335C113.123 60.4178 114.802 59.0814 116.562 57.8835C116.022 56.4786 114.461 53.0853 112.693 53.0175C111.067 52.955 108.958 55.0342 107.742 55.9669Z"
        fill="#090909" />
    <path
        d="M120.655 52.6445C120.482 52.8147 120.889 52.7936 120.908 52.7725C121.081 52.6019 120.674 52.6234 120.655 52.6445Z"
        fill="#090909" />
    <path
        d="M121.422 52.6445C121.249 52.8147 121.656 52.7936 121.675 52.7725C121.848 52.6019 121.441 52.6234 121.422 52.6445Z"
        fill="#090909" />
    <path
        d="M122.189 52.6445C122.016 52.8147 122.423 52.7936 122.442 52.7725C122.615 52.6019 122.208 52.6234 122.189 52.6445Z"
        fill="#090909" />
    <path
        d="M124.106 53.0275C123.933 53.1981 124.34 53.1766 124.359 53.1555C124.532 52.985 124.125 53.0064 124.106 53.0275Z"
        fill="#090909" />
    <path
        d="M151.46 53.6665C151.94 53.9291 152.055 53.9536 152.611 54.0498C152.132 53.7873 152.017 53.7627 151.46 53.6665Z"
        fill="#090909" />
    <path d="M137.271 55.5833V56.7333C137.54 56.1376 137.54 56.179 137.271 55.5833Z"
        fill="#090909" />
    <path
        d="M164.626 55.8392C164.606 55.8603 164.583 56.2651 164.756 56.0945C164.775 56.0734 164.798 55.6686 164.626 55.8392Z"
        fill="#090909" />
    <path
        d="M164.626 56.6058C164.606 56.6269 164.583 57.0317 164.756 56.8611C164.775 56.84 164.798 56.4352 164.626 56.6058Z"
        fill="#090909" />
    <path d="M181.756 56.3501V57.5001C182.025 56.9044 182.025 56.9458 181.756 56.3501Z"
        fill="#090909" />
    <path d="M147.242 56.7334V57.8834C147.511 57.2877 147.511 57.3291 147.242 56.7334Z"
        fill="#090909" />
    <path d="M164.499 57.1167V58.2667C164.768 57.671 164.768 57.7124 164.499 57.1167Z"
        fill="#090909" />
    <path
        d="M94.1925 58.7778C94.0217 58.9483 94.4271 58.9269 94.4482 58.9058C94.619 58.7352 94.2136 58.7567 94.1925 58.7778Z"
        fill="#090909" />
    <path
        d="M96.4933 58.7778C96.3225 58.9483 96.7278 58.9269 96.749 58.9058C96.9198 58.7352 96.5144 58.7567 96.4933 58.7778Z"
        fill="#090909" />
    <path
        d="M143.917 58.9056C143.898 58.9267 143.875 59.3315 144.047 59.1609C144.067 59.1398 144.09 58.735 143.917 58.9056Z"
        fill="#090909" />
    <path
        d="M147.883 60.311C147.71 60.4812 148.117 60.4601 148.136 60.439C148.309 60.2684 147.902 60.2899 147.883 60.311Z"
        fill="#090909" />
    <path
        d="M106.465 61.0776C106.293 61.2481 106.7 61.2267 106.719 61.2056C106.892 61.035 106.485 61.0565 106.465 61.0776Z"
        fill="#090909" />
    <path
        d="M106.976 60.9502C107.455 61.2128 107.57 61.2373 108.126 61.3335C107.647 61.0709 107.532 61.0464 106.976 60.9502Z"
        fill="#090909" />
    <path
        d="M108.383 61.0776C108.21 61.2481 108.617 61.2267 108.636 61.2056C108.809 61.035 108.402 61.0565 108.383 61.0776Z"
        fill="#090909" />
    <path
        d="M105.441 61.547C100.816 62.7599 99.198 68.7311 101.914 72.4333C103.656 74.8073 106.86 75.6537 109.66 74.9193C114.733 73.5883 116.083 66.929 112.647 63.2912C110.86 61.4018 107.911 60.8988 105.441 61.547Z"
        fill="#090909" />
    <path d="M142.257 61.3335V62.4835C142.526 61.8878 142.526 61.9292 142.257 61.3335Z"
        fill="#090909" />
    <path d="M143.407 61.7168V63.6335C143.726 62.8553 143.726 62.495 143.407 61.7168Z"
        fill="#090909" />
    <path
        d="M161.431 61.7168L153.378 65.9335C154.536 68.7134 155.936 71.4692 157.596 73.9835C160.392 73.1789 163.142 71.6122 165.65 70.1501C164.848 67.3633 163.284 63.9524 161.431 61.7168Z"
        fill="#090909" />
    <path
        d="M142.383 62.7391C142.364 62.7606 142.341 63.1646 142.513 62.9944C142.533 62.9733 142.556 62.5685 142.383 62.7391Z"
        fill="#090909" />
    <path d="M143.407 63.6333V65.55C143.726 64.7718 143.726 64.4115 143.407 63.6333Z"
        fill="#090909" />
    <path d="M142.64 64.0166V65.1666C142.909 64.5709 142.909 64.6123 142.64 64.0166Z"
        fill="#090909" />
    <path
        d="M118.48 64.7832C117.33 68.1799 115.554 71.5732 115.029 75.1332C118.445 75.924 121.682 77.4612 124.999 78.5832C126.487 75.2478 127.703 71.7051 128.834 68.2332C125.321 67.2753 122.035 65.6047 118.48 64.7832Z"
        fill="#090909" />
    <path d="M142.64 65.1667V66.3167C142.909 65.721 142.909 65.7624 142.64 65.1667Z"
        fill="#090909" />
    <path
        d="M172.042 65.2944C171.87 65.4646 172.276 65.4439 172.296 65.4224C172.468 65.2518 172.062 65.2733 172.042 65.2944Z"
        fill="#090909" />
    <path
        d="M172.552 65.1667C173.032 65.4293 173.147 65.4539 173.703 65.5501C173.223 65.2875 173.108 65.263 172.552 65.1667Z"
        fill="#090909" />
    <path
        d="M173.703 65.1667C174.182 65.4293 174.297 65.4539 174.853 65.5501C174.374 65.2875 174.259 65.263 173.703 65.1667Z"
        fill="#090909" />
    <path d="M143.407 65.5498V67.4665C143.726 66.6883 143.726 66.328 143.407 65.5498Z"
        fill="#090909" />
    <path d="M142.64 66.3164V67.8497C142.913 67.1751 142.913 66.9911 142.64 66.3164Z"
        fill="#090909" />
    <path
        d="M100.584 66.9559C100.563 66.977 100.541 67.3818 100.712 67.2112C100.733 67.1901 100.755 66.7853 100.584 66.9559Z"
        fill="#090909" />
    <path
        d="M114.772 68.1058C114.752 68.1273 114.729 68.5313 114.902 68.3611C114.921 68.34 114.944 67.9352 114.772 68.1058Z"
        fill="#090909" />
    <path
        d="M143.917 69.639C143.898 69.6601 143.875 70.0649 144.047 69.8943C144.067 69.8732 144.09 69.4684 143.917 69.639Z"
        fill="#090909" />
    <path d="M149.927 69.7666V70.9166C150.195 70.3209 150.195 70.3623 149.927 69.7666Z"
        fill="#090909" />
    <path
        d="M143.917 70.4056C143.898 70.4267 143.875 70.8315 144.047 70.6609C144.067 70.6398 144.09 70.235 143.917 70.4056Z"
        fill="#090909" />
    <path
        d="M135.864 70.7889C135.844 70.8104 135.821 71.2144 135.994 71.0442C136.013 71.0231 136.036 70.6183 135.864 70.7889Z"
        fill="#090909" />
    <path
        d="M144.301 71.5555C144.281 71.5766 144.258 71.981 144.431 71.8108C144.45 71.7897 144.473 71.3849 144.301 71.5555Z"
        fill="#090909" />
    <path d="M142.64 71.6833V72.8334C142.909 72.2377 142.909 72.2791 142.64 71.6833Z"
        fill="#090909" />
    <path d="M136.121 72.0664V73.2164C136.389 72.6207 136.389 72.6621 136.121 72.0664Z"
        fill="#090909" />
    <path d="M149.543 72.45V76.6666C150.092 75.3595 150.092 73.7571 149.543 72.45Z"
        fill="#090909" />
    <path
        d="M142.767 73.0892C142.748 73.1103 142.725 73.5147 142.897 73.3445C142.916 73.3234 142.939 72.9186 142.767 73.0892Z"
        fill="#090909" />
    <path d="M136.121 73.2168V75.1335C136.439 74.3553 136.439 73.995 136.121 73.2168Z"
        fill="#090909" />
    <path
        d="M143.407 73.2168C143.407 78.7767 141.455 83.8769 140.722 89.3168C143.89 89.3187 146.912 89.8926 149.926 90.8502C148.829 87.8406 147.134 85.0929 146.091 82.0335C145.133 79.2137 144.803 75.8231 143.407 73.2168Z"
        fill="#090909" />
    <path
        d="M142.767 73.8558C142.748 73.8769 142.725 74.2813 142.897 74.1111C142.916 74.09 142.939 73.6852 142.767 73.8558Z"
        fill="#090909" />
    <path
        d="M114.772 74.6224C114.752 74.6439 114.729 75.0479 114.902 74.8777C114.921 74.8566 114.944 74.4518 114.772 74.6224Z"
        fill="#090909" />
    <path d="M143.024 74.75V75.9C143.292 75.3047 143.292 75.3457 143.024 74.75Z" fill="#090909" />
    <path
        d="M106.592 75.1333C107.271 75.4319 107.758 75.4829 108.509 75.5166C107.83 75.218 107.343 75.167 106.592 75.1333Z"
        fill="#090909" />
    <path d="M136.121 75.1333V76.6666C136.393 75.992 136.393 75.8076 136.121 75.1333Z"
        fill="#090909" />
    <path
        d="M142.383 76.1556C142.364 76.1767 142.341 76.5811 142.513 76.4109C142.533 76.3898 142.556 75.985 142.383 76.1556Z"
        fill="#090909" />
    <path
        d="M143.15 76.1556C143.131 76.1767 143.108 76.5815 143.281 76.4109C143.3 76.3898 143.323 75.985 143.15 76.1556Z"
        fill="#090909" />
    <path
        d="M143.15 76.9222C143.131 76.9433 143.108 77.3481 143.281 77.1775C143.3 77.1564 143.323 76.7516 143.15 76.9222Z"
        fill="#090909" />
    <path d="M141.873 77.8169V78.9669C142.142 78.3712 142.142 78.4126 141.873 77.8169Z"
        fill="#090909" />
    <path
        d="M135.864 78.4557C135.844 78.4771 135.821 78.8812 135.994 78.711C136.013 78.6899 136.036 78.2851 135.864 78.4557Z"
        fill="#090909" />
    <path d="M149.927 78.5833V79.7333C150.195 79.1376 150.195 79.179 149.927 78.5833Z"
        fill="#090909" />
    <path
        d="M135.864 79.2225C135.844 79.244 135.821 79.648 135.994 79.4778C136.013 79.4567 136.036 79.0519 135.864 79.2225Z"
        fill="#090909" />
    <path
        d="M135.864 79.9891C135.844 80.0106 135.821 80.4146 135.994 80.2444C136.013 80.2233 136.036 79.8185 135.864 79.9891Z"
        fill="#090909" />
    <path
        d="M140.339 89.3169C141.34 89.7378 142.318 89.6976 143.407 89.7003C142.406 89.2794 141.428 89.3196 140.339 89.3169Z"
        fill="#090909" />
    <path
        d="M143.407 89.3169C143.887 89.5795 144.002 89.604 144.558 89.7002C144.078 89.4376 143.963 89.4131 143.407 89.3169Z"
        fill="#090909" />
    <path
        d="M137.145 89.8276C136.972 89.9978 137.379 89.9767 137.398 89.9556C137.571 89.785 137.164 89.8065 137.145 89.8276Z"
        fill="#090909" />
    <path
        d="M145.965 89.8276C145.792 89.9978 146.199 89.9767 146.218 89.9556C146.391 89.785 145.984 89.8065 145.965 89.8276Z"
        fill="#090909" />
    <path
        d="M23.7626 122.12C23.3306 121.288 22.7306 120.664 21.9626 120.248C21.1946 119.816 20.3066 119.6 19.2986 119.6C18.1946 119.6 17.2106 119.848 16.3466 120.344C15.4826 120.84 14.8026 121.544 14.3066 122.456C13.8266 123.368 13.5866 124.424 13.5866 125.624C13.5866 126.824 13.8266 127.888 14.3066 128.816C14.8026 129.728 15.4826 130.432 16.3466 130.928C17.2106 131.424 18.1946 131.672 19.2986 131.672C20.7866 131.672 21.9946 131.256 22.9226 130.424C23.8506 129.592 24.4186 128.464 24.6266 127.04H18.3626V124.856H27.5546V126.992C27.3786 128.288 26.9146 129.48 26.1626 130.568C25.4266 131.656 24.4586 132.528 23.2586 133.184C22.0746 133.824 20.7546 134.144 19.2986 134.144C17.7306 134.144 16.2986 133.784 15.0026 133.064C13.7066 132.328 12.6746 131.312 11.9066 130.016C11.1546 128.72 10.7786 127.256 10.7786 125.624C10.7786 123.992 11.1546 122.528 11.9066 121.232C12.6746 119.936 13.7066 118.928 15.0026 118.208C16.3146 117.472 17.7466 117.104 19.2986 117.104C21.0746 117.104 22.6506 117.544 24.0266 118.424C25.4186 119.288 26.4266 120.52 27.0506 122.12H23.7626ZM32.9891 122.696C33.3891 122.024 33.9171 121.504 34.5731 121.136C35.2451 120.752 36.0371 120.56 36.9491 120.56V123.392H36.2531C35.1811 123.392 34.3651 123.664 33.8051 124.208C33.2611 124.752 32.9891 125.696 32.9891 127.04V134H30.2531V120.776H32.9891V122.696ZM45.2001 134.216C43.9521 134.216 42.8241 133.936 41.8161 133.376C40.8081 132.8 40.0161 132 39.4401 130.976C38.8641 129.936 38.5761 128.736 38.5761 127.376C38.5761 126.032 38.8721 124.84 39.4641 123.8C40.0561 122.76 40.8641 121.96 41.8881 121.4C42.9121 120.84 44.0561 120.56 45.3201 120.56C46.5841 120.56 47.7281 120.84 48.7521 121.4C49.7761 121.96 50.5841 122.76 51.1761 123.8C51.7681 124.84 52.0641 126.032 52.0641 127.376C52.0641 128.72 51.7601 129.912 51.1521 130.952C50.5441 131.992 49.7121 132.8 48.6561 133.376C47.6161 133.936 46.4641 134.216 45.2001 134.216ZM45.2001 131.84C45.9041 131.84 46.5601 131.672 47.1681 131.336C47.7921 131 48.2961 130.496 48.6801 129.824C49.0641 129.152 49.2561 128.336 49.2561 127.376C49.2561 126.416 49.0721 125.608 48.7041 124.952C48.3361 124.28 47.8481 123.776 47.2401 123.44C46.6321 123.104 45.9761 122.936 45.2721 122.936C44.5681 122.936 43.9121 123.104 43.3041 123.44C42.7121 123.776 42.2401 124.28 41.8881 124.952C41.5361 125.608 41.3601 126.416 41.3601 127.376C41.3601 128.8 41.7201 129.904 42.4401 130.688C43.1761 131.456 44.0961 131.84 45.2001 131.84ZM72.5288 120.776L68.4248 134H65.5448L62.8808 124.232L60.2168 134H57.3368L53.2088 120.776H55.9928L58.7528 131.408L61.5608 120.776H64.4168L67.1048 131.36L69.8408 120.776H72.5288ZM92.7118 120.776L84.5998 140.216H81.7678L84.4558 133.784L79.2478 120.776H82.2958L86.0158 130.856L89.8798 120.776H92.7118ZM100.513 134.216C99.2646 134.216 98.1366 133.936 97.1286 133.376C96.1206 132.8 95.3286 132 94.7526 130.976C94.1766 129.936 93.8886 128.736 93.8886 127.376C93.8886 126.032 94.1846 124.84 94.7766 123.8C95.3686 122.76 96.1766 121.96 97.2006 121.4C98.2246 120.84 99.3686 120.56 100.633 120.56C101.897 120.56 103.041 120.84 104.065 121.4C105.089 121.96 105.897 122.76 106.489 123.8C107.081 124.84 107.377 126.032 107.377 127.376C107.377 128.72 107.073 129.912 106.465 130.952C105.857 131.992 105.025 132.8 103.969 133.376C102.929 133.936 101.777 134.216 100.513 134.216ZM100.513 131.84C101.217 131.84 101.873 131.672 102.481 131.336C103.105 131 103.609 130.496 103.993 129.824C104.377 129.152 104.569 128.336 104.569 127.376C104.569 126.416 104.385 125.608 104.017 124.952C103.649 124.28 103.161 123.776 102.553 123.44C101.945 123.104 101.289 122.936 100.585 122.936C99.8806 122.936 99.2246 123.104 98.6166 123.44C98.0246 123.776 97.5526 124.28 97.2006 124.952C96.8486 125.608 96.6726 126.416 96.6726 127.376C96.6726 128.8 97.0326 129.904 97.7526 130.688C98.4886 131.456 99.4086 131.84 100.513 131.84ZM122.057 120.776V134H119.321V132.44C118.889 132.984 118.321 133.416 117.617 133.736C116.929 134.04 116.193 134.192 115.409 134.192C114.369 134.192 113.433 133.976 112.601 133.544C111.785 133.112 111.137 132.472 110.657 131.624C110.193 130.776 109.961 129.752 109.961 128.552V120.776H112.673V128.144C112.673 129.328 112.969 130.24 113.561 130.88C114.153 131.504 114.961 131.816 115.985 131.816C117.009 131.816 117.817 131.504 118.409 130.88C119.017 130.24 119.321 129.328 119.321 128.144V120.776H122.057ZM128.403 122.696C128.803 122.024 129.331 121.504 129.987 121.136C130.659 120.752 131.451 120.56 132.363 120.56V123.392H131.667C130.595 123.392 129.779 123.664 129.219 124.208C128.675 124.752 128.403 125.696 128.403 127.04V134H125.667V120.776H128.403V122.696ZM146.657 123.008H144.209V134H141.449V123.008H139.889V120.776H141.449V119.84C141.449 118.32 141.849 117.216 142.649 116.528C143.465 115.824 144.737 115.472 146.465 115.472V117.752C145.633 117.752 145.049 117.912 144.713 118.232C144.377 118.536 144.209 119.072 144.209 119.84V120.776H146.657V123.008ZM148.169 127.328C148.169 126 148.441 124.824 148.985 123.8C149.545 122.776 150.297 121.984 151.241 121.424C152.201 120.848 153.257 120.56 154.409 120.56C155.449 120.56 156.353 120.768 157.121 121.184C157.905 121.584 158.529 122.088 158.993 122.696V120.776H161.753V134H158.993V132.032C158.529 132.656 157.897 133.176 157.097 133.592C156.297 134.008 155.385 134.216 154.361 134.216C153.225 134.216 152.185 133.928 151.241 133.352C150.297 132.76 149.545 131.944 148.985 130.904C148.441 129.848 148.169 128.656 148.169 127.328ZM158.993 127.376C158.993 126.464 158.801 125.672 158.417 125C158.049 124.328 157.561 123.816 156.953 123.464C156.345 123.112 155.689 122.936 154.985 122.936C154.281 122.936 153.625 123.112 153.017 123.464C152.409 123.8 151.913 124.304 151.529 124.976C151.161 125.632 150.977 126.416 150.977 127.328C150.977 128.24 151.161 129.04 151.529 129.728C151.913 130.416 152.409 130.944 153.017 131.312C153.641 131.664 154.297 131.84 154.985 131.84C155.689 131.84 156.345 131.664 156.953 131.312C157.561 130.96 158.049 130.448 158.417 129.776C158.801 129.088 158.993 128.288 158.993 127.376ZM181.355 120.56C182.395 120.56 183.323 120.776 184.139 121.208C184.971 121.64 185.619 122.28 186.083 123.128C186.563 123.976 186.803 125 186.803 126.2V134H184.091V126.608C184.091 125.424 183.795 124.52 183.203 123.896C182.611 123.256 181.803 122.936 180.779 122.936C179.755 122.936 178.939 123.256 178.331 123.896C177.739 124.52 177.443 125.424 177.443 126.608V134H174.731V126.608C174.731 125.424 174.435 124.52 173.843 123.896C173.251 123.256 172.443 122.936 171.419 122.936C170.395 122.936 169.579 123.256 168.971 123.896C168.379 124.52 168.083 125.424 168.083 126.608V134H165.347V120.776H168.083V122.288C168.531 121.744 169.099 121.32 169.787 121.016C170.475 120.712 171.211 120.56 171.995 120.56C173.051 120.56 173.995 120.784 174.827 121.232C175.659 121.68 176.299 122.328 176.747 123.176C177.147 122.376 177.771 121.744 178.619 121.28C179.467 120.8 180.379 120.56 181.355 120.56ZM191.676 119.024C191.18 119.024 190.764 118.856 190.428 118.52C190.092 118.184 189.924 117.768 189.924 117.272C189.924 116.776 190.092 116.36 190.428 116.024C190.764 115.688 191.18 115.52 191.676 115.52C192.156 115.52 192.564 115.688 192.9 116.024C193.236 116.36 193.404 116.776 193.404 117.272C193.404 117.768 193.236 118.184 192.9 118.52C192.564 118.856 192.156 119.024 191.676 119.024ZM193.02 120.776V134H190.284V120.776H193.02ZM199.349 116.24V134H196.613V116.24H199.349ZM214.845 120.776L206.733 140.216H203.901L206.589 133.784L201.381 120.776H204.429L208.149 130.856L212.013 120.776H214.845ZM226.336 123.008V130.328C226.336 130.824 226.448 131.184 226.672 131.408C226.912 131.616 227.312 131.72 227.872 131.72H229.552V134H227.392C226.16 134 225.216 133.712 224.56 133.136C223.904 132.56 223.576 131.624 223.576 130.328V123.008H222.016V120.776H223.576V117.488H226.336V120.776H229.552V123.008H226.336ZM234.809 122.696C235.209 122.024 235.737 121.504 236.393 121.136C237.065 120.752 237.857 120.56 238.769 120.56V123.392H238.073C237.001 123.392 236.185 123.664 235.625 124.208C235.081 124.752 234.809 125.696 234.809 127.04V134H232.073V120.776H234.809V122.696ZM253.404 127.064C253.404 127.56 253.372 128.008 253.308 128.408H243.204C243.284 129.464 243.676 130.312 244.38 130.952C245.084 131.592 245.948 131.912 246.972 131.912C248.444 131.912 249.484 131.296 250.092 130.064H253.044C252.644 131.28 251.916 132.28 250.86 133.064C249.82 133.832 248.524 134.216 246.972 134.216C245.708 134.216 244.572 133.936 243.564 133.376C242.572 132.8 241.788 132 241.212 130.976C240.652 129.936 240.372 128.736 240.372 127.376C240.372 126.016 240.644 124.824 241.188 123.8C241.748 122.76 242.524 121.96 243.516 121.4C244.524 120.84 245.676 120.56 246.972 120.56C248.22 120.56 249.332 120.832 250.308 121.376C251.284 121.92 252.044 122.688 252.588 123.68C253.132 124.656 253.404 125.784 253.404 127.064ZM250.548 126.2C250.532 125.192 250.172 124.384 249.468 123.776C248.764 123.168 247.892 122.864 246.852 122.864C245.908 122.864 245.1 123.168 244.428 123.776C243.756 124.368 243.356 125.176 243.228 126.2H250.548ZM268.217 127.064C268.217 127.56 268.185 128.008 268.121 128.408H258.017C258.097 129.464 258.489 130.312 259.193 130.952C259.897 131.592 260.761 131.912 261.785 131.912C263.257 131.912 264.297 131.296 264.905 130.064H267.857C267.457 131.28 266.729 132.28 265.673 133.064C264.633 133.832 263.337 134.216 261.785 134.216C260.521 134.216 259.385 133.936 258.377 133.376C257.385 132.8 256.601 132 256.025 130.976C255.465 129.936 255.185 128.736 255.185 127.376C255.185 126.016 255.457 124.824 256.001 123.8C256.561 122.76 257.337 121.96 258.329 121.4C259.337 120.84 260.489 120.56 261.785 120.56C263.033 120.56 264.145 120.832 265.121 121.376C266.097 121.92 266.857 122.688 267.401 123.68C267.945 124.656 268.217 125.784 268.217 127.064ZM265.361 126.2C265.345 125.192 264.985 124.384 264.281 123.776C263.577 123.168 262.705 122.864 261.665 122.864C260.721 122.864 259.913 123.168 259.241 123.776C258.569 124.368 258.169 125.176 258.041 126.2H265.361Z"
        fill="#0E0E0E" />
    <path
        d="M78.6531 160.112C77.9064 160.112 77.2344 159.984 76.6371 159.728C76.0397 159.461 75.5704 159.088 75.2291 158.608C74.8877 158.128 74.7171 157.568 74.7171 156.928H76.6691C76.7117 157.408 76.8984 157.803 77.2291 158.112C77.5704 158.421 78.0451 158.576 78.6531 158.576C79.2824 158.576 79.7731 158.427 80.1251 158.128C80.4771 157.819 80.6531 157.424 80.6531 156.944C80.6531 156.571 80.5411 156.267 80.3171 156.032C80.1037 155.797 79.8317 155.616 79.5011 155.488C79.1811 155.36 78.7331 155.221 78.1571 155.072C77.4317 154.88 76.8397 154.688 76.3811 154.496C75.9331 154.293 75.5491 153.984 75.2291 153.568C74.9091 153.152 74.7491 152.597 74.7491 151.904C74.7491 151.264 74.9091 150.704 75.2291 150.224C75.5491 149.744 75.9971 149.376 76.5731 149.12C77.1491 148.864 77.8157 148.736 78.5731 148.736C79.6504 148.736 80.5304 149.008 81.2131 149.552C81.9064 150.085 82.2904 150.821 82.3651 151.76H80.3491C80.3171 151.355 80.1251 151.008 79.7731 150.72C79.4211 150.432 78.9571 150.288 78.3811 150.288C77.8584 150.288 77.4317 150.421 77.1011 150.688C76.7704 150.955 76.6051 151.339 76.6051 151.84C76.6051 152.181 76.7064 152.464 76.9091 152.688C77.1224 152.901 77.3891 153.072 77.7091 153.2C78.0291 153.328 78.4664 153.467 79.0211 153.616C79.7571 153.819 80.3544 154.021 80.8131 154.224C81.2824 154.427 81.6771 154.741 81.9971 155.168C82.3277 155.584 82.4931 156.144 82.4931 156.848C82.4931 157.413 82.3384 157.947 82.0291 158.448C81.7304 158.949 81.2877 159.355 80.7011 159.664C80.1251 159.963 79.4424 160.112 78.6531 160.112ZM89.2053 151.04C89.8773 151.04 90.4746 151.184 90.9973 151.472C91.5306 151.76 91.9466 152.187 92.2453 152.752C92.5546 153.317 92.7093 154 92.7093 154.8V160H90.9013V155.072C90.9013 154.283 90.704 153.68 90.3093 153.264C89.9146 152.837 89.376 152.624 88.6933 152.624C88.0106 152.624 87.4666 152.837 87.0613 153.264C86.6666 153.68 86.4693 154.283 86.4693 155.072V160H84.6453V148.16H86.4693V152.208C86.7786 151.835 87.168 151.547 87.6373 151.344C88.1173 151.141 88.64 151.04 89.2053 151.04ZM94.4279 155.552C94.4279 154.667 94.6093 153.883 94.9719 153.2C95.3453 152.517 95.8466 151.989 96.4759 151.616C97.1159 151.232 97.8199 151.04 98.5879 151.04C99.2813 151.04 99.8839 151.179 100.396 151.456C100.919 151.723 101.335 152.059 101.644 152.464V151.184H103.484V160H101.644V158.688C101.335 159.104 100.913 159.451 100.38 159.728C99.8466 160.005 99.2386 160.144 98.5559 160.144C97.7986 160.144 97.1053 159.952 96.4759 159.568C95.8466 159.173 95.3453 158.629 94.9719 157.936C94.6093 157.232 94.4279 156.437 94.4279 155.552ZM101.644 155.584C101.644 154.976 101.516 154.448 101.26 154C101.015 153.552 100.689 153.211 100.284 152.976C99.8786 152.741 99.4413 152.624 98.9719 152.624C98.5026 152.624 98.0653 152.741 97.6599 152.976C97.2546 153.2 96.9239 153.536 96.6679 153.984C96.4226 154.421 96.2999 154.944 96.2999 155.552C96.2999 156.16 96.4226 156.693 96.6679 157.152C96.9239 157.611 97.2546 157.963 97.6599 158.208C98.0759 158.443 98.5133 158.56 98.9719 158.56C99.4413 158.56 99.8786 158.443 100.284 158.208C100.689 157.973 101.015 157.632 101.26 157.184C101.516 156.725 101.644 156.192 101.644 155.584ZM107.704 152.464C107.97 152.016 108.322 151.669 108.76 151.424C109.208 151.168 109.736 151.04 110.344 151.04V152.928H109.88C109.165 152.928 108.621 153.109 108.248 153.472C107.885 153.835 107.704 154.464 107.704 155.36V160H105.88V151.184H107.704V152.464ZM120.1 155.376C120.1 155.707 120.079 156.005 120.036 156.272H113.3C113.354 156.976 113.615 157.541 114.084 157.968C114.554 158.395 115.13 158.608 115.812 158.608C116.794 158.608 117.487 158.197 117.892 157.376H119.86C119.594 158.187 119.108 158.853 118.404 159.376C117.711 159.888 116.847 160.144 115.812 160.144C114.97 160.144 114.212 159.957 113.54 159.584C112.879 159.2 112.356 158.667 111.972 157.984C111.599 157.291 111.412 156.491 111.412 155.584C111.412 154.677 111.594 153.883 111.956 153.2C112.33 152.507 112.847 151.973 113.508 151.6C114.18 151.227 114.948 151.04 115.812 151.04C116.644 151.04 117.386 151.221 118.036 151.584C118.687 151.947 119.194 152.459 119.556 153.12C119.919 153.771 120.1 154.523 120.1 155.376ZM118.196 154.8C118.186 154.128 117.946 153.589 117.476 153.184C117.007 152.779 116.426 152.576 115.732 152.576C115.103 152.576 114.564 152.779 114.116 153.184C113.668 153.579 113.402 154.117 113.316 154.8H118.196ZM133.988 151.184L128.58 164.144H126.692L128.484 159.856L125.012 151.184H127.044L129.524 157.904L132.1 151.184H133.988ZM139.188 160.144C138.356 160.144 137.604 159.957 136.932 159.584C136.26 159.2 135.732 158.667 135.348 157.984C134.964 157.291 134.772 156.491 134.772 155.584C134.772 154.688 134.969 153.893 135.364 153.2C135.759 152.507 136.297 151.973 136.98 151.6C137.663 151.227 138.425 151.04 139.268 151.04C140.111 151.04 140.873 151.227 141.556 151.6C142.239 151.973 142.777 152.507 143.172 153.2C143.567 153.893 143.764 154.688 143.764 155.584C143.764 156.48 143.561 157.275 143.156 157.968C142.751 158.661 142.196 159.2 141.492 159.584C140.799 159.957 140.031 160.144 139.188 160.144ZM139.188 158.56C139.657 158.56 140.095 158.448 140.5 158.224C140.916 158 141.252 157.664 141.508 157.216C141.764 156.768 141.892 156.224 141.892 155.584C141.892 154.944 141.769 154.405 141.524 153.968C141.279 153.52 140.953 153.184 140.548 152.96C140.143 152.736 139.705 152.624 139.236 152.624C138.767 152.624 138.329 152.736 137.924 152.96C137.529 153.184 137.215 153.52 136.98 153.968C136.745 154.405 136.628 154.944 136.628 155.584C136.628 156.533 136.868 157.269 137.348 157.792C137.839 158.304 138.452 158.56 139.188 158.56ZM153.551 151.184V160H151.727V158.96C151.439 159.323 151.061 159.611 150.591 159.824C150.133 160.027 149.642 160.128 149.119 160.128C148.426 160.128 147.802 159.984 147.247 159.696C146.703 159.408 146.271 158.981 145.951 158.416C145.642 157.851 145.487 157.168 145.487 156.368V151.184H147.295V156.096C147.295 156.885 147.493 157.493 147.887 157.92C148.282 158.336 148.821 158.544 149.503 158.544C150.186 158.544 150.725 158.336 151.119 157.92C151.525 157.493 151.727 156.885 151.727 156.096V151.184H153.551ZM157.782 152.464C158.048 152.016 158.4 151.669 158.838 151.424C159.286 151.168 159.814 151.04 160.422 151.04V152.928H159.958C159.243 152.928 158.699 153.109 158.326 153.472C157.963 153.835 157.782 154.464 157.782 155.36V160H155.958V151.184H157.782V152.464ZM169.455 160.144C168.761 160.144 168.137 160.021 167.583 159.776C167.039 159.52 166.607 159.179 166.287 158.752C165.967 158.315 165.796 157.829 165.775 157.296H167.663C167.695 157.669 167.871 157.984 168.191 158.24C168.521 158.485 168.932 158.608 169.423 158.608C169.935 158.608 170.329 158.512 170.607 158.32C170.895 158.117 171.039 157.861 171.039 157.552C171.039 157.221 170.879 156.976 170.559 156.816C170.249 156.656 169.753 156.48 169.071 156.288C168.409 156.107 167.871 155.931 167.455 155.76C167.039 155.589 166.676 155.328 166.367 154.976C166.068 154.624 165.919 154.16 165.919 153.584C165.919 153.115 166.057 152.688 166.335 152.304C166.612 151.909 167.007 151.6 167.519 151.376C168.041 151.152 168.639 151.04 169.311 151.04C170.313 151.04 171.119 151.296 171.727 151.808C172.345 152.309 172.676 152.997 172.719 153.872H170.895C170.863 153.477 170.703 153.163 170.415 152.928C170.127 152.693 169.737 152.576 169.247 152.576C168.767 152.576 168.399 152.667 168.143 152.848C167.887 153.029 167.759 153.269 167.759 153.568C167.759 153.803 167.844 154 168.015 154.16C168.185 154.32 168.393 154.448 168.639 154.544C168.884 154.629 169.247 154.741 169.727 154.88C170.367 155.051 170.889 155.227 171.295 155.408C171.711 155.579 172.068 155.835 172.367 156.176C172.665 156.517 172.82 156.971 172.831 157.536C172.831 158.037 172.692 158.485 172.415 158.88C172.137 159.275 171.743 159.584 171.231 159.808C170.729 160.032 170.137 160.144 169.455 160.144ZM176.93 152.672V157.552C176.93 157.883 177.004 158.123 177.154 158.272C177.314 158.411 177.58 158.48 177.954 158.48H179.074V160H177.634C176.812 160 176.183 159.808 175.746 159.424C175.308 159.04 175.09 158.416 175.09 157.552V152.672H174.05V151.184H175.09V148.992H176.93V151.184H179.074V152.672H176.93ZM184.579 160.144C183.747 160.144 182.995 159.957 182.323 159.584C181.651 159.2 181.123 158.667 180.739 157.984C180.355 157.291 180.163 156.491 180.163 155.584C180.163 154.688 180.36 153.893 180.755 153.2C181.149 152.507 181.688 151.973 182.371 151.6C183.053 151.227 183.816 151.04 184.659 151.04C185.501 151.04 186.264 151.227 186.947 151.6C187.629 151.973 188.168 152.507 188.563 153.2C188.957 153.893 189.155 154.688 189.155 155.584C189.155 156.48 188.952 157.275 188.547 157.968C188.141 158.661 187.587 159.2 186.883 159.584C186.189 159.957 185.421 160.144 184.579 160.144ZM184.579 158.56C185.048 158.56 185.485 158.448 185.891 158.224C186.307 158 186.643 157.664 186.899 157.216C187.155 156.768 187.283 156.224 187.283 155.584C187.283 154.944 187.16 154.405 186.915 153.968C186.669 153.52 186.344 153.184 185.939 152.96C185.533 152.736 185.096 152.624 184.627 152.624C184.157 152.624 183.72 152.736 183.315 152.96C182.92 153.184 182.605 153.52 182.371 153.968C182.136 154.405 182.019 154.944 182.019 155.584C182.019 156.533 182.259 157.269 182.739 157.792C183.229 158.304 183.843 158.56 184.579 158.56ZM192.782 152.464C193.048 152.016 193.4 151.669 193.838 151.424C194.286 151.168 194.814 151.04 195.422 151.04V152.928H194.958C194.243 152.928 193.699 153.109 193.326 153.472C192.963 153.835 192.782 154.464 192.782 155.36V160H190.958V151.184H192.782V152.464ZM205.034 151.184L199.626 164.144H197.738L199.53 159.856L196.058 151.184H198.09L200.57 157.904L203.146 151.184H205.034Z"
        fill="#0E0E0E" />
</svg>
