<svg fill="none" height="24" viewBox="0 0 25 24" width="25" xmlns="http://www.w3.org/2000/svg">
    <path
        d="M16.94 2H8.56C4.92 2 2.75 4.17 2.75 7.81V16.19C2.75 19.83 4.92 22 8.56 22H16.94C20.58 22 22.75 19.83 22.75 16.19V7.81C22.75 4.17 20.58 2 16.94 2ZM10.72 14.9L8.47 17.15C8.32 17.3 8.13 17.37 7.94 17.37C7.75 17.37 7.55 17.3 7.41 17.15L6.66 16.4C6.36 16.11 6.36 15.63 6.66 15.34C6.95 15.05 7.42 15.05 7.72 15.34L7.94 15.56L9.66 13.84C9.95 13.55 10.42 13.55 10.72 13.84C11.01 14.13 11.01 14.61 10.72 14.9ZM10.72 7.9L8.47 10.15C8.32 10.3 8.13 10.37 7.94 10.37C7.75 10.37 7.55 10.3 7.41 10.15L6.66 9.4C6.36 9.11 6.36 8.63 6.66 8.34C6.95 8.05 7.42 8.05 7.72 8.34L7.94 8.56L9.66 6.84C9.95 6.55 10.42 6.55 10.72 6.84C11.01 7.13 11.01 7.61 10.72 7.9ZM18.31 16.62H13.06C12.65 16.62 12.31 16.28 12.31 15.87C12.31 15.46 12.65 15.12 13.06 15.12H18.31C18.73 15.12 19.06 15.46 19.06 15.87C19.06 16.28 18.73 16.62 18.31 16.62ZM18.31 9.62H13.06C12.65 9.62 12.31 9.28 12.31 8.87C12.31 8.46 12.65 8.12 13.06 8.12H18.31C18.73 8.12 19.06 8.46 19.06 8.87C19.06 9.28 18.73 9.62 18.31 9.62Z"
        fill="#929292" />
</svg>
