<svg width="14" height="15" viewBox="0 0 14 15" fill="none" xmlns="http://www.w3.org/2000/svg">
<path fill-rule="evenodd" clip-rule="evenodd" d="M11.9509 12.546C11.0018 13.4593 9.82603 14.1024 8.54513 14.409C7.81738 14.6026 7.05821 14.6483 6.31251 14.5434C5.5668 14.4385 4.84968 14.1852 4.20355 13.7984L4.04903 13.7037L4.01289 13.6838C4.00246 13.6794 3.9916 13.676 3.98049 13.6738C3.96807 13.6725 3.95553 13.6725 3.94311 13.6738H3.91444L3.77612 13.7087H3.75868C3.36489 13.8109 3.04463 13.8931 2.78793 13.9417C2.5427 13.9984 2.28883 14.0073 2.04024 13.9679C1.69663 13.8979 1.3812 13.7284 1.13325 13.4805C0.885295 13.2325 0.715772 12.9171 0.645797 12.5735C0.606249 12.3249 0.615135 12.071 0.671966 11.8258C0.720566 11.5678 0.802812 11.2488 0.904996 10.855V10.8376C0.922442 10.7703 0.932411 10.7292 0.939888 10.6993C0.947365 10.6693 0.939888 10.6693 0.939888 10.6693C0.943879 10.646 0.940389 10.622 0.929919 10.6008C0.929919 10.6008 0.923688 10.5883 0.909981 10.5647C0.896273 10.541 0.86138 10.4837 0.815273 10.4114C0.426231 9.7711 0.169442 9.05934 0.0600713 8.31815C-0.0492992 7.57695 -0.0090329 6.82136 0.178491 6.09598C0.49044 4.80341 1.14623 3.61928 2.07638 2.66908C3.38614 1.35914 5.16264 0.623164 7.01505 0.623047C8.86745 0.62293 10.644 1.35868 11.954 2.66845C13.2639 3.97822 13.9999 5.75471 14 7.60712C14.0001 9.45953 13.2644 11.2361 11.9546 12.546H11.9509Z" fill="#0E0E0E"/>
<path d="M9.75396 8.70689C10.3596 8.70689 10.8506 8.21592 10.8506 7.61028C10.8506 7.00464 10.3596 6.51367 9.75396 6.51367C9.14832 6.51367 8.65735 7.00464 8.65735 7.61028C8.65735 8.21592 9.14832 8.70689 9.75396 8.70689Z" fill="#EFF8FF"/>
<path d="M7.01238 8.70689C7.61802 8.70689 8.10899 8.21592 8.10899 7.61028C8.10899 7.00464 7.61802 6.51367 7.01238 6.51367C6.40674 6.51367 5.91577 7.00464 5.91577 7.61028C5.91577 8.21592 6.40674 8.70689 7.01238 8.70689Z" fill="#EFF8FF"/>
<path d="M4.27087 8.70689C4.87651 8.70689 5.36748 8.21592 5.36748 7.61028C5.36748 7.00464 4.87651 6.51367 4.27087 6.51367C3.66522 6.51367 3.17426 7.00464 3.17426 7.61028C3.17426 8.21592 3.66522 8.70689 4.27087 8.70689Z" fill="#EFF8FF"/>
</svg>
