<svg fill="none" height="41" viewBox="0 0 40 41" width="40" xmlns="http://www.w3.org/2000/svg">
    <circle cx="20" cy="20.4868" fill="#7A1CAC" r="20" />
    <path d="M20 15.8535V18.6285" stroke="white" stroke-linecap="round" stroke-miterlimit="10"
        stroke-width="1.5" />
    <path
        d="M20.0167 12.1533C16.95 12.1533 14.4667 14.6367 14.4667 17.7033V19.4533C14.4667 20.02 14.2333 20.87 13.9417 21.3533L12.8833 23.12C12.2333 24.2117 12.6833 25.4283 13.8833 25.8283C17.8667 27.1533 22.175 27.1533 26.1583 25.8283C27.2833 25.4533 27.7667 24.1367 27.1583 23.12L26.1 21.3533C25.8083 20.87 25.575 20.0117 25.575 19.4533V17.7033C25.5667 14.6533 23.0667 12.1533 20.0167 12.1533Z"
        stroke="white" stroke-linecap="round" stroke-miterlimit="10" stroke-width="1.5" />
    <path
        d="M22.775 26.1699C22.775 27.6949 21.525 28.9449 20 28.9449C19.2417 28.9449 18.5417 28.6283 18.0417 28.1283C17.5417 27.6283 17.225 26.9283 17.225 26.1699"
        stroke="white" stroke-miterlimit="10" stroke-width="1.5" />
</svg>
