<svg width="24" height="24" viewBox="0 0 24 24" fill="none" xmlns="http://www.w3.org/2000/svg">
<circle cx="12" cy="12" r="10.3703" fill="#FEC424" stroke="url(#paint0_linear_418_2908)" stroke-width="3.2594"/>
<circle cx="12" cy="12" r="11.8025" stroke="url(#paint1_linear_418_2908)" stroke-width="0.395079"/>
<circle cx="12.0001" cy="12.0485" r="8.61224" stroke="url(#paint2_linear_418_2908)" stroke-width="0.296309"/>
<path d="M8.48047 9.28516H7.8125V12.5547H8.43359C9.26953 12.5469 9.69531 12.0039 9.71094 10.9258C9.70312 9.84766 9.29297 9.30078 8.48047 9.28516ZM8.98438 16H5.23438V15.6836H6.17188V9.28516H5.23438V8.96875H9.14844C9.66406 8.96875 10.1094 9.05859 10.4844 9.23828C11.1406 9.55859 11.4688 10.0859 11.4688 10.8203C11.4688 11.1172 11.418 11.3867 11.3164 11.6289C10.9727 12.4805 10.125 12.9062 8.77344 12.9062H7.8125V15.6836H8.66797C8.83203 15.6992 8.9375 15.8047 8.98438 16ZM15.0664 9.28516H14.3984V12.5547H15.0195C15.8555 12.5469 16.2812 12.0039 16.2969 10.9258C16.2891 9.84766 15.8789 9.30078 15.0664 9.28516ZM15.5703 16H11.8203V15.6836H12.7578V9.28516H11.8203V8.96875H15.7344C16.25 8.96875 16.6953 9.05859 17.0703 9.23828C17.7266 9.55859 18.0547 10.0859 18.0547 10.8203C18.0547 11.1172 18.0039 11.3867 17.9023 11.6289C17.5586 12.4805 16.7109 12.9062 15.3594 12.9062H14.3984V15.6836H15.2539C15.418 15.6992 15.5234 15.8047 15.5703 16Z" fill="#090909"/>
<defs>
<linearGradient id="paint0_linear_418_2908" x1="20.6046" y1="3.13755" x2="4.72867" y2="21.4456" gradientUnits="userSpaceOnUse">
<stop stop-color="#FED64A"/>
<stop offset="0.123016" stop-color="#FEF14E"/>
<stop offset="0.248796" stop-color="#FFDF6C"/>
<stop offset="0.482583" stop-color="#FCFF67"/>
<stop offset="0.743348" stop-color="#FED545"/>
<stop offset="0.82597" stop-color="#FECA45"/>
<stop offset="1" stop-color="#FEED44"/>
</linearGradient>
<linearGradient id="paint1_linear_418_2908" x1="9.63871" y1="-4.07763e-08" x2="12.5569" y2="24" gradientUnits="userSpaceOnUse">
<stop stop-color="#FFF3C4"/>
<stop offset="0.483894" stop-color="#EDC071"/>
<stop offset="0.961122" stop-color="#BF8147"/>
</linearGradient>
<linearGradient id="paint2_linear_418_2908" x1="9.81361" y1="3.28809" x2="17.7232" y2="18.8987" gradientUnits="userSpaceOnUse">
<stop stop-color="#C8892B"/>
<stop offset="0.979601" stop-color="#FFEDA3"/>
</linearGradient>
</defs>
</svg>
