<svg fill="none" height="24" viewBox="0 0 25 24" width="25" xmlns="http://www.w3.org/2000/svg">
    <path
        d="M9.62999 4.59997C8.82999 1.13997 3.61999 1.12997 2.81999 4.59997C2.34999 6.62997 3.63999 8.34997 4.75999 9.41997C5.57999 10.19 6.86999 10.19 7.68999 9.41997C8.80999 8.34997 10.09 6.62997 9.62999 4.59997ZM6.25999 6.19997C5.70999 6.19997 5.25999 5.74997 5.25999 5.19997C5.25999 4.64997 5.69999 4.19997 6.24999 4.19997H6.25999C6.81999 4.19997 7.25999 4.64997 7.25999 5.19997C7.25999 5.74997 6.81999 6.19997 6.25999 6.19997Z"
        fill="#929292" />
    <path
        d="M22.66 16.6C21.86 13.14 16.63 13.13 15.82 16.6C15.35 18.63 16.64 20.35 17.77 21.42C18.59 22.19 19.89 22.19 20.71 21.42C21.84 20.35 23.13 18.63 22.66 16.6ZM19.28 18.2C18.73 18.2 18.28 17.75 18.28 17.2C18.28 16.65 18.72 16.2 19.27 16.2H19.28C19.83 16.2 20.28 16.65 20.28 17.2C20.28 17.75 19.83 18.2 19.28 18.2Z"
        fill="#929292" />
    <path
        d="M12.7499 19.75H10.0699C8.90994 19.75 7.89994 19.05 7.49994 17.97C7.08994 16.89 7.38994 15.7 8.25994 14.93L16.2499 7.94C16.7299 7.52 16.7399 6.95 16.5999 6.56C16.4499 6.17 16.0699 5.75 15.4299 5.75H12.7499C12.3399 5.75 11.9999 5.41 11.9999 5C11.9999 4.59 12.3399 4.25 12.7499 4.25H15.4299C16.5899 4.25 17.5999 4.95 17.9999 6.03C18.4099 7.11 18.1099 8.3 17.2399 9.07L9.24994 16.06C8.76994 16.48 8.75994 17.05 8.89994 17.44C9.04994 17.83 9.42994 18.25 10.0699 18.25H12.7499C13.1599 18.25 13.4999 18.59 13.4999 19C13.4999 19.41 13.1599 19.75 12.7499 19.75Z"
        fill="#929292" />
</svg>
