<svg fill="none" height="41" viewBox="0 0 40 41" width="40" xmlns="http://www.w3.org/2000/svg">
    <circle cx="20" cy="20.4868" fill="#7A1CAC" r="20" />
    <path
        d="M14.5667 25.8953V23.462C14.5667 22.6537 15.2 21.9286 16.1 21.9286C16.9083 21.9286 17.6333 22.562 17.6333 23.462V25.8037C17.6333 27.4287 16.2833 28.7787 14.6583 28.7787C13.0333 28.7787 11.6833 27.4203 11.6833 25.8037V20.6703C11.5916 15.987 15.2917 12.1953 19.975 12.1953C24.6583 12.1953 28.35 15.987 28.35 20.5786V25.712C28.35 27.337 27 28.687 25.375 28.687C23.75 28.687 22.4 27.337 22.4 25.712V23.3703C22.4 22.562 23.0333 21.837 23.9333 21.837C24.7417 21.837 25.4667 22.4703 25.4667 23.3703V25.8953"
        stroke="white" stroke-linecap="round" stroke-linejoin="round" stroke-width="1.5" />
    <path
        d="M22.9417 18.0868H22.2667C22.0833 18.0868 21.9083 18.1951 21.825 18.3535L21.2 19.6035C21.1083 19.7868 20.85 19.7868 20.7583 19.6035L19.225 16.5452C19.1333 16.3702 18.8833 16.3618 18.7917 16.5368L18.0917 17.8285C18.0083 17.9868 17.8417 18.0868 17.6583 18.0868H17.05"
        stroke="white" stroke-linecap="round" stroke-linejoin="round" stroke-width="1.5" />
</svg>
