<svg width="28" height="28" viewBox="0 0 28 28" fill="none" xmlns="http://www.w3.org/2000/svg">
<path d="M5.60005 16.8002C4.82227 16.8002 4.16116 16.528 3.61672 15.9835C3.07227 15.4391 2.80005 14.778 2.80005 14.0002C2.80005 13.2224 3.07227 12.5613 3.61672 12.0169C4.16116 11.4724 4.82227 11.2002 5.60005 11.2002V9.10019C5.60005 8.5227 5.80567 8.02832 6.21692 7.61707C6.62817 7.20582 7.12255 7.0002 7.70005 7.0002H11.2C11.2 6.22242 11.4723 5.56131 12.0167 5.01686C12.5612 4.47242 13.2223 4.2002 14 4.2002C14.7778 4.2002 15.4389 4.47242 15.9834 5.01686C16.5278 5.56131 16.8 6.22242 16.8 7.0002H20.3001C20.8776 7.0002 21.3719 7.20582 21.7832 7.61707C22.1944 8.02832 22.4001 8.5227 22.4001 9.10019V11.2002C23.1778 11.2002 23.8389 11.4724 24.3834 12.0169C24.9278 12.5613 25.2001 13.2224 25.2001 14.0002C25.2001 14.778 24.9278 15.4391 24.3834 15.9835C23.8389 16.528 23.1778 16.8002 22.4001 16.8002V21.7002C22.4001 22.2777 22.1943 22.7721 21.7829 23.1833C21.3714 23.5946 20.8768 23.8002 20.2989 23.8002H7.69188C7.11399 23.8002 6.62088 23.5946 6.21255 23.1833C5.80422 22.7721 5.60005 22.2777 5.60005 21.7002V16.8002ZM10.5 14.7002C10.8889 14.7002 11.2195 14.5641 11.4917 14.2919C11.7639 14.0196 11.9 13.6891 11.9 13.3002C11.9 12.9113 11.7639 12.5808 11.4917 12.3085C11.2195 12.0363 10.8889 11.9002 10.5 11.9002C10.1112 11.9002 9.7806 12.0363 9.50838 12.3085C9.23616 12.5808 9.10005 12.9113 9.10005 13.3002C9.10005 13.6891 9.23616 14.0196 9.50838 14.2919C9.7806 14.5641 10.1112 14.7002 10.5 14.7002ZM17.1501 14.7002C17.5389 14.7002 17.8695 14.5641 18.1417 14.2919C18.4139 14.0196 18.55 13.6891 18.55 13.3002C18.55 12.9113 18.4139 12.5808 18.1417 12.3085C17.8695 12.0363 17.5389 11.9002 17.1501 11.9002C16.7612 11.9002 16.4306 12.0363 16.1584 12.3085C15.8862 12.5808 15.75 12.9113 15.75 13.3002C15.75 13.6891 15.8862 14.0196 16.1584 14.2919C16.4306 14.5641 16.7612 14.7002 17.1501 14.7002ZM9.80005 18.9002H18.2001V16.8002H9.80005V18.9002ZM7.70005 21.7002H20.3001V9.10019H7.70005V21.7002Z" fill="#0E0E0E"/>
</svg>
