<svg fill="none" height="24" viewBox="0 0 25 24" width="25" xmlns="http://www.w3.org/2000/svg">
    <path
        d="M22.25 7.80995V16.19C22.25 19.4 19.65 22 16.44 22H8.06C4.85 22 2.25 19.4 2.25 16.19V7.80995C2.25 5.31995 3.27 3.50995 5.08 2.62995C5.74 2.30995 6.5 2.80995 6.5 3.53995V12.42C6.5 13.61 6.96 14.56 7.79 15.04C8.63 15.51 9.69 15.41 10.77 14.76L12.07 13.98C12.15 13.94 12.35 13.94 12.41 13.97L13.73 14.76C14.45 15.19 15.07 15.33 15.57 15.33C16.09 15.33 16.49 15.17 16.73 15.03C17.54 14.56 18 13.61 18 12.42V3.53995C18 2.80995 18.77 2.30995 19.42 2.62995C21.23 3.50995 22.25 5.31995 22.25 7.80995Z"
        fill="#929292" />
    <path
        d="M15.5 2C16.05 2 16.5 2.45 16.5 3V12.42C16.5 13.06 16.31 13.54 15.98 13.73C15.64 13.93 15.1 13.83 14.5 13.47L13.18 12.68C12.67 12.37 11.83 12.37 11.32 12.68L10 13.47C9.4 13.83 8.86 13.92 8.52 13.73C8.19 13.54 8 13.06 8 12.42V3C8 2.45 8.45 2 9 2H15.5Z"
        fill="#929292" />
</svg>
