<svg fill="none" height="24" viewBox="0 0 25 24" width="25" xmlns="http://www.w3.org/2000/svg">
    <path
        d="M20.35 9.22006C18.54 9.22006 17.8 7.94006 18.7 6.37006C19.22 5.46006 18.91 4.30006 18 3.78006L16.27 2.79006C15.48 2.32006 14.46 2.60006 13.99 3.39006L13.88 3.58006C12.98 5.15006 11.5 5.15006 10.59 3.58006L10.48 3.39006C10.03 2.60006 9.01 2.32006 8.22 2.79006L6.49 3.78006C5.58 4.30006 5.27 5.47006 5.79 6.38006C6.7 7.94006 5.96 9.22006 4.15 9.22006C3.11 9.22006 2.25 10.0701 2.25 11.1201V12.8801C2.25 13.9201 3.1 14.7801 4.15 14.7801C5.96 14.7801 6.7 16.0601 5.79 17.6301C5.27 18.5401 5.58 19.7001 6.49 20.2201L8.22 21.2101C9.01 21.6801 10.03 21.4001 10.5 20.6101L10.61 20.4201C11.51 18.8501 12.99 18.8501 13.9 20.4201L14.01 20.6101C14.48 21.4001 15.5 21.6801 16.29 21.2101L18.02 20.2201C18.93 19.7001 19.24 18.5301 18.72 17.6301C17.81 16.0601 18.55 14.7801 20.36 14.7801C21.4 14.7801 22.26 13.9301 22.26 12.8801V11.1201C22.25 10.0801 21.4 9.22006 20.35 9.22006ZM12.25 15.2501C10.46 15.2501 9 13.7901 9 12.0001C9 10.2101 10.46 8.75006 12.25 8.75006C14.04 8.75006 15.5 10.2101 15.5 12.0001C15.5 13.7901 14.04 15.2501 12.25 15.2501Z"
        fill="#929292" />
</svg>
