<svg width="14" height="14" viewBox="0 0 14 14" fill="none" xmlns="http://www.w3.org/2000/svg">
<path d="M13.8366 6.04735L8.77869 0.796333C8.69764 0.714371 8.59414 0.65824 8.48124 0.635017C8.36834 0.611793 8.2511 0.622518 8.14428 0.665837C8.03747 0.709157 7.94587 0.783132 7.88103 0.878436C7.8162 0.97374 7.78104 1.08611 7.77998 1.20137V3.72478H7.58578C5.57463 3.72713 3.64651 4.5271 2.22441 5.9492C0.802308 7.37131 0.00234948 9.29942 0 11.3106V12.478C0.00181092 12.6081 0.0476695 12.7338 0.130092 12.8346C0.212514 12.9354 0.326634 13.0052 0.453856 13.0328C0.495948 13.0433 0.539189 13.0485 0.582576 13.0483C0.69336 13.0471 0.801655 13.0153 0.895606 12.9566C0.989556 12.8979 1.06555 12.8145 1.11524 12.7154C1.64447 11.6461 2.46286 10.7466 3.47753 10.1189C4.4922 9.49122 5.6625 9.16056 6.85561 9.16444H7.77998V11.7045C7.78104 11.8198 7.8162 11.9321 7.88103 12.0274C7.94587 12.1227 8.03747 12.1967 8.14428 12.24C8.2511 12.2834 8.36834 12.2941 8.48124 12.2709C8.59414 12.2476 8.69764 12.1915 8.77869 12.1095L13.8355 6.85853C13.9408 6.74984 13.9998 6.6045 14 6.45316C14.0002 6.30182 13.9416 6.15632 13.8366 6.04735Z" fill="#0E0E0E"/>
</svg>
