<svg width="22" height="21" viewBox="0 0 22 21" fill="none" xmlns="http://www.w3.org/2000/svg">
<mask id="path-1-inside-1_418_2710" fill="white">
<path d="M11.3864 8.88988C11.6074 8.58881 12.0348 8.52083 12.3016 8.78216C12.8833 9.35179 13.3123 10.0637 13.5429 10.8523C13.8371 11.8583 13.7918 12.9332 13.4141 13.911C13.0364 14.8887 12.3473 15.7149 11.4532 16.262C10.5591 16.809 9.50979 17.0465 8.46728 16.9377C7.42477 16.8288 6.4471 16.3798 5.68525 15.6599C4.92341 14.94 4.41979 13.9893 4.25217 12.9546C4.08455 11.9199 4.26226 10.8588 4.75786 9.93521C5.14633 9.21125 5.71317 8.60332 6.39992 8.16609C6.71498 7.96551 7.11908 8.12028 7.27316 8.46051C7.42723 8.80075 7.2709 9.19652 6.96758 9.41445C6.54666 9.71686 6.1975 10.1128 5.94966 10.5747C5.59453 11.2365 5.46719 11.9969 5.5873 12.7383C5.70741 13.4797 6.06829 14.161 6.6142 14.6768C7.16011 15.1927 7.86068 15.5144 8.60771 15.5924C9.35473 15.6704 10.1067 15.5003 10.7473 15.1083C11.388 14.7163 11.8818 14.1242 12.1524 13.4236C12.4231 12.723 12.4555 11.9527 12.2447 11.2318C12.0976 10.7287 11.8378 10.2692 11.4884 9.88636C11.2366 9.61049 11.1654 9.19096 11.3864 8.88988Z"/>
</mask>
<path d="M11.3864 8.88988C11.6074 8.58881 12.0348 8.52083 12.3016 8.78216C12.8833 9.35179 13.3123 10.0637 13.5429 10.8523C13.8371 11.8583 13.7918 12.9332 13.4141 13.911C13.0364 14.8887 12.3473 15.7149 11.4532 16.262C10.5591 16.809 9.50979 17.0465 8.46728 16.9377C7.42477 16.8288 6.4471 16.3798 5.68525 15.6599C4.92341 14.94 4.41979 13.9893 4.25217 12.9546C4.08455 11.9199 4.26226 10.8588 4.75786 9.93521C5.14633 9.21125 5.71317 8.60332 6.39992 8.16609C6.71498 7.96551 7.11908 8.12028 7.27316 8.46051C7.42723 8.80075 7.2709 9.19652 6.96758 9.41445C6.54666 9.71686 6.1975 10.1128 5.94966 10.5747C5.59453 11.2365 5.46719 11.9969 5.5873 12.7383C5.70741 13.4797 6.06829 14.161 6.6142 14.6768C7.16011 15.1927 7.86068 15.5144 8.60771 15.5924C9.35473 15.6704 10.1067 15.5003 10.7473 15.1083C11.388 14.7163 11.8818 14.1242 12.1524 13.4236C12.4231 12.723 12.4555 11.9527 12.2447 11.2318C12.0976 10.7287 11.8378 10.2692 11.4884 9.88636C11.2366 9.61049 11.1654 9.19096 11.3864 8.88988Z" fill="#D9D9D9" stroke="#0051EF" stroke-width="2.82783" mask="url(#path-1-inside-1_418_2710)"/>
<mask id="path-2-inside-2_418_2710" fill="white">
<path d="M10.2206 11.8061C9.95581 12.0695 9.52308 12.0707 9.29975 11.7713C8.81295 11.1188 8.49886 10.3492 8.39271 9.53451C8.25729 8.49512 8.46785 7.44006 8.99187 6.53228C9.51589 5.6245 10.3242 4.91451 11.292 4.51196C12.2598 4.10941 13.3332 4.03671 14.3464 4.30507C15.3597 4.57344 16.2564 5.16794 16.898 5.99676C17.5397 6.82559 17.8906 7.84262 17.8966 8.89077C17.9025 9.93893 17.5632 10.9599 16.9311 11.796C16.4356 12.4513 15.7817 12.9645 15.0357 13.2906C14.6935 13.4401 14.3181 13.2249 14.2184 12.8649C14.1186 12.505 14.3342 12.1381 14.6675 11.9696C15.13 11.7357 15.5361 11.3984 15.8522 10.9803C16.3052 10.3811 16.5483 9.64956 16.5441 8.89848C16.5398 8.14741 16.2883 7.41864 15.8285 6.82474C15.3687 6.23083 14.7262 5.80483 14.0002 5.61253C13.2741 5.42023 12.5049 5.47232 11.8115 5.76078C11.118 6.04923 10.5387 6.55799 10.1632 7.20847C9.78775 7.85896 9.63687 8.61498 9.73391 9.35977C9.80163 9.87955 9.98748 10.3737 10.2736 10.8058C10.4798 11.1172 10.4855 11.5427 10.2206 11.8061Z"/>
</mask>
<path d="M10.2206 11.8061C9.95581 12.0695 9.52308 12.0707 9.29975 11.7713C8.81295 11.1188 8.49886 10.3492 8.39271 9.53451C8.25729 8.49512 8.46785 7.44006 8.99187 6.53228C9.51589 5.6245 10.3242 4.91451 11.292 4.51196C12.2598 4.10941 13.3332 4.03671 14.3464 4.30507C15.3597 4.57344 16.2564 5.16794 16.898 5.99676C17.5397 6.82559 17.8906 7.84262 17.8966 8.89077C17.9025 9.93893 17.5632 10.9599 16.9311 11.796C16.4356 12.4513 15.7817 12.9645 15.0357 13.2906C14.6935 13.4401 14.3181 13.2249 14.2184 12.8649C14.1186 12.505 14.3342 12.1381 14.6675 11.9696C15.13 11.7357 15.5361 11.3984 15.8522 10.9803C16.3052 10.3811 16.5483 9.64956 16.5441 8.89848C16.5398 8.14741 16.2883 7.41864 15.8285 6.82474C15.3687 6.23083 14.7262 5.80483 14.0002 5.61253C13.2741 5.42023 12.5049 5.47232 11.8115 5.76078C11.118 6.04923 10.5387 6.55799 10.1632 7.20847C9.78775 7.85896 9.63687 8.61498 9.73391 9.35977C9.80163 9.87955 9.98748 10.3737 10.2736 10.8058C10.4798 11.1172 10.4855 11.5427 10.2206 11.8061Z" fill="#D9D9D9" stroke="#0051EF" stroke-width="2.82783" mask="url(#path-2-inside-2_418_2710)"/>
</svg>
