<svg fill="none" height="41" viewBox="0 0 40 41" width="40" xmlns="http://www.w3.org/2000/svg">
    <circle cx="20" cy="20.4868" fill="#7A1CAC" r="20" />
    <g clip-path="url(#clip0_108_934)">
        <path
            d="M17.6953 10.5143C16.5039 10.5807 14.8086 10.7799 14.2187 10.9206C13.6719 11.0495 13.0352 11.3503 12.5 11.7292C11.9336 12.1354 11.2344 12.9088 10.9297 13.4753C10.5508 14.1706 10.4297 14.5651 10.293 15.5065C10.0742 17.0299 10 18.1745 10 20.0573C10 20.8424 10.0195 21.7643 10.0391 22.1081C10.1211 23.3854 10.2852 24.7721 10.4336 25.401C10.8086 27.0143 12.2422 28.5534 13.875 29.0963C14.6289 29.3503 16.5781 29.5729 18.4844 29.6198C19.6406 29.651 21.4531 29.6198 22.1797 29.5534L22.6172 29.5143L22.8633 29.6823C23.3516 30.0221 23.7852 30.2213 24.3633 30.3737C24.7969 30.487 25.7852 30.5182 26.2773 30.4323C27.5898 30.2057 28.7383 29.3893 29.4297 28.2018C29.6523 27.8112 29.8633 27.2331 29.9414 26.7878C30.0156 26.3542 30.0156 25.5065 29.9414 25.112C29.8242 24.4987 29.5937 23.9401 29.2461 23.4206L29.0273 23.0963L29.0664 22.6823C29.1758 21.5378 29.1719 18.7604 29.0625 17.401C28.9531 16.0534 28.7773 14.862 28.6133 14.3659C28.375 13.6588 27.9687 12.9987 27.4102 12.4167C26.6797 11.651 25.8086 11.1276 24.9141 10.9167C24.293 10.7721 22.9102 10.6081 21.6211 10.526C21.0664 10.4909 18.2461 10.4831 17.6953 10.5143ZM20.9375 12.0299C22.6836 12.0768 24.4258 12.3034 25.0352 12.569C25.9961 12.9831 26.8437 13.8971 27.1641 14.862C27.3164 15.3229 27.4844 16.6081 27.582 18.0456C27.6289 18.776 27.6445 21.4088 27.5977 21.7253L27.5703 21.9245L27.2773 21.7878C27.1133 21.7135 26.8125 21.6042 26.6055 21.5495C26.2617 21.4557 26.168 21.4479 25.4687 21.4479C24.7578 21.4479 24.6797 21.4557 24.3164 21.5573C23.2891 21.8385 22.3516 22.4909 21.7461 23.3424C21.4883 23.7057 21.1875 24.3542 21.0664 24.8112C20.9727 25.1588 20.9609 25.2604 20.9609 25.9362C20.957 26.776 21.0156 27.1003 21.2734 27.7057C21.3516 27.8854 21.4023 28.0417 21.3906 28.0573C21.332 28.112 19.6484 28.1393 18.5547 28.1042C16.5898 28.0378 14.875 27.8424 14.2695 27.6159C13.3086 27.2526 12.3945 26.3542 12.0391 25.4128C11.8711 24.9753 11.7344 24.1159 11.5937 22.5768C11.5234 21.8268 11.5234 18.3776 11.5937 17.5573C11.6602 16.7799 11.8164 15.5495 11.8945 15.1784C12.0703 14.3307 12.7148 13.4323 13.5312 12.8893C14.1133 12.5026 14.4766 12.3854 15.5273 12.2487C16.832 12.0768 18.7734 11.9635 19.8242 11.9987C20.0195 12.0026 20.5195 12.0182 20.9375 12.0299ZM26.3984 23.0846C27.3867 23.4167 28.1445 24.2292 28.3984 25.2292C28.5039 25.6471 28.5039 26.2604 28.3984 26.6823C27.8594 28.819 25.3125 29.6784 23.5859 28.3073C23.1328 27.944 22.7852 27.4479 22.5977 26.8854C22.4531 26.4479 22.418 25.7995 22.5195 25.3463C22.7734 24.194 23.6211 23.3151 24.7656 23.0221C25.2109 22.9088 25.957 22.9362 26.3984 23.0846Z"
            fill="white" />
        <path
            d="M14.5156 15.5063C13.9141 15.7212 13.8555 16.6118 14.4219 16.8892L14.5937 16.9712H19.5625C23.6484 16.9712 24.5547 16.9634 24.6602 16.9165C24.8984 16.8188 25.1172 16.4829 25.1172 16.2134C25.1172 15.9048 24.8594 15.5688 24.5586 15.4946C24.2734 15.4204 14.7187 15.4321 14.5156 15.5063Z"
            fill="white" />
        <path
            d="M14.4219 20.1783C13.832 20.4713 13.9336 21.4088 14.5664 21.5806C14.6719 21.608 15.6836 21.6197 17.7031 21.6119C20.6016 21.6002 20.6875 21.5963 20.8164 21.522C20.8906 21.4791 21.0039 21.3775 21.0703 21.2955C21.1797 21.1588 21.1914 21.1197 21.1914 20.8619C21.1914 20.6197 21.1758 20.5572 21.0859 20.4205C21.0234 20.3267 20.9141 20.2291 20.8125 20.1783C20.6406 20.0963 20.6172 20.0963 17.6133 20.0963C14.6016 20.0963 14.5898 20.0963 14.4219 20.1783Z"
            fill="white" />
        <path
            d="M25.3711 23.6003C25.3281 23.6081 25.2539 23.6238 25.207 23.6355C25.0781 23.6589 24.8398 23.8816 24.7812 24.03C24.7422 24.1238 24.7266 24.3777 24.7266 24.9792C24.7266 25.7292 24.7344 25.8152 24.8047 25.9558C25.0391 26.4128 25.7539 26.4753 26.0664 26.0652C26.2227 25.8621 26.2578 25.6042 26.2422 24.8308C26.2266 24.0613 26.207 23.9949 25.957 23.7761C25.8828 23.7058 25.7734 23.6433 25.7227 23.6316C25.5273 23.5925 25.4492 23.5847 25.3711 23.6003Z"
            fill="white" />
        <path
            d="M25.0547 26.8113C24.7734 26.8816 24.7109 27.0183 24.7109 27.5652C24.7109 28.0261 24.7578 28.1472 24.9766 28.2527C25.1328 28.3308 25.8789 28.323 26 28.241C26.1953 28.116 26.2305 28.0027 26.2305 27.534C26.2305 27.034 26.1797 26.9129 25.9336 26.8269C25.7891 26.7761 25.2461 26.7683 25.0547 26.8113Z"
            fill="white" />
    </g>
    <defs>
        <clipPath id="clip0_108_934">
            <rect fill="white" height="20" transform="translate(10 10.4868)" width="20" />
        </clipPath>
    </defs>
</svg>
