<svg width="20" height="21" viewBox="0 0 20 21" fill="none" xmlns="http://www.w3.org/2000/svg">
<path d="M15 17.623H5.5V7.62305L11.5 1.62305L12.1667 2.08138C12.4167 2.26194 12.6007 2.4911 12.7188 2.76888C12.8368 3.04666 12.8611 3.33138 12.7917 3.62305L12 7.62305H17.5C17.9167 7.62305 18.2708 7.76888 18.5625 8.06055C18.8542 8.35221 19 8.70638 19 9.12305V10.3105C19 10.4217 18.9896 10.5224 18.9688 10.6126C18.9479 10.7029 18.9167 10.7967 18.875 10.8939L16.3958 16.7064C16.2708 16.9842 16.0833 17.2064 15.8333 17.373C15.5833 17.5397 15.3056 17.623 15 17.623ZM4 7.62305V17.623H1V7.62305H4Z" fill="white"/>
</svg>
